<?xml version="1.0" encoding="utf-8" standalone="no"?>
<!DOCTYPE svg PUBLIC "-//W3C//DTD SVG 1.1//EN"
  "http://www.w3.org/Graphics/SVG/1.1/DTD/svg11.dtd">
<svg xmlns:xlink="http://www.w3.org/1999/xlink" width="1080pt" height="720pt" viewBox="0 0 1080 720" xmlns="http://www.w3.org/2000/svg" version="1.1">
 <metadata>
  <rdf:RDF xmlns:dc="http://purl.org/dc/elements/1.1/" xmlns:cc="http://creativecommons.org/ns#" xmlns:rdf="http://www.w3.org/1999/02/22-rdf-syntax-ns#">
   <cc:Work>
    <dc:type rdf:resource="http://purl.org/dc/dcmitype/StillImage"/>
    <dc:date>2022-05-27T20:22:49.411227</dc:date>
    <dc:format>image/svg+xml</dc:format>
    <dc:creator>
     <cc:Agent>
      <dc:title>Matplotlib v3.5.1, https://matplotlib.org/</dc:title>
     </cc:Agent>
    </dc:creator>
   </cc:Work>
  </rdf:RDF>
 </metadata>
 <defs>
  <style type="text/css">*{stroke-linejoin: round; stroke-linecap: butt}</style>
 </defs>
 <g id="figure_1">
  <g id="patch_1">
   <path d="M 0 720 
L 1080 720 
L 1080 0 
L 0 0 
z
" style="fill: #ffffff"/>
  </g>
  <g id="axes_1">
   <g id="patch_2">
    <path d="M 135 630 
L 972 630 
L 972 86.4 
L 135 86.4 
z
" style="fill: #ffffff"/>
   </g>
   <g id="matplotlib.axis_1">
    <g id="xtick_1">
     <g id="text_1">
      <!-- −1,0 -->
      <g style="fill: #262626" transform="translate(181.985862 645.589375)scale(0.12 -0.12)">
       <defs>
        <path id="ArialMT-2212" d="M 3381 1997 
L 356 1997 
L 356 2522 
L 3381 2522 
L 3381 1997 
z
" transform="scale(0.015625)"/>
        <path id="ArialMT-31" d="M 2384 0 
L 1822 0 
L 1822 3584 
Q 1619 3391 1289 3197 
Q 959 3003 697 2906 
L 697 3450 
Q 1169 3672 1522 3987 
Q 1875 4303 2022 4600 
L 2384 4600 
L 2384 0 
z
" transform="scale(0.015625)"/>
        <path id="ArialMT-2c" d="M 569 0 
L 569 641 
L 1209 641 
L 1209 0 
Q 1209 -353 1084 -570 
Q 959 -788 688 -906 
L 531 -666 
Q 709 -588 793 -436 
Q 878 -284 888 0 
L 569 0 
z
" transform="scale(0.015625)"/>
        <path id="ArialMT-30" d="M 266 2259 
Q 266 3072 433 3567 
Q 600 4063 929 4331 
Q 1259 4600 1759 4600 
Q 2128 4600 2406 4451 
Q 2684 4303 2865 4023 
Q 3047 3744 3150 3342 
Q 3253 2941 3253 2259 
Q 3253 1453 3087 958 
Q 2922 463 2592 192 
Q 2263 -78 1759 -78 
Q 1097 -78 719 397 
Q 266 969 266 2259 
z
M 844 2259 
Q 844 1131 1108 757 
Q 1372 384 1759 384 
Q 2147 384 2411 759 
Q 2675 1134 2675 2259 
Q 2675 3391 2411 3762 
Q 2147 4134 1753 4134 
Q 1366 4134 1134 3806 
Q 844 3388 844 2259 
z
" transform="scale(0.015625)"/>
       </defs>
       <use xlink:href="#ArialMT-2212"/>
       <use xlink:href="#ArialMT-31" x="58.398438"/>
       <use xlink:href="#ArialMT-2c" x="114.013672"/>
       <use xlink:href="#ArialMT-30" x="141.796875"/>
      </g>
     </g>
    </g>
    <g id="xtick_2">
     <g id="text_2">
      <!-- −0,5 -->
      <g style="fill: #262626" transform="translate(361.721889 645.589375)scale(0.12 -0.12)">
       <defs>
        <path id="ArialMT-35" d="M 266 1200 
L 856 1250 
Q 922 819 1161 601 
Q 1400 384 1738 384 
Q 2144 384 2425 690 
Q 2706 997 2706 1503 
Q 2706 1984 2436 2262 
Q 2166 2541 1728 2541 
Q 1456 2541 1237 2417 
Q 1019 2294 894 2097 
L 366 2166 
L 809 4519 
L 3088 4519 
L 3088 3981 
L 1259 3981 
L 1013 2750 
Q 1425 3038 1878 3038 
Q 2478 3038 2890 2622 
Q 3303 2206 3303 1553 
Q 3303 931 2941 478 
Q 2500 -78 1738 -78 
Q 1113 -78 717 272 
Q 322 622 266 1200 
z
" transform="scale(0.015625)"/>
       </defs>
       <use xlink:href="#ArialMT-2212"/>
       <use xlink:href="#ArialMT-30" x="58.398438"/>
       <use xlink:href="#ArialMT-2c" x="114.013672"/>
       <use xlink:href="#ArialMT-35" x="141.796875"/>
      </g>
     </g>
    </g>
    <g id="xtick_3">
     <g id="text_3">
      <!-- 0,0 -->
      <g style="fill: #262626" transform="translate(544.96229 645.589375)scale(0.12 -0.12)">
       <use xlink:href="#ArialMT-30"/>
       <use xlink:href="#ArialMT-2c" x="55.615234"/>
       <use xlink:href="#ArialMT-30" x="83.398438"/>
      </g>
     </g>
    </g>
    <g id="xtick_4">
     <g id="text_4">
      <!-- 0,5 -->
      <g style="fill: #262626" transform="translate(724.698317 645.589375)scale(0.12 -0.12)">
       <use xlink:href="#ArialMT-30"/>
       <use xlink:href="#ArialMT-2c" x="55.615234"/>
       <use xlink:href="#ArialMT-35" x="83.398438"/>
      </g>
     </g>
    </g>
    <g id="xtick_5">
     <g id="text_5">
      <!-- 1,0 -->
      <g style="fill: #262626" transform="translate(904.434344 645.589375)scale(0.12 -0.12)">
       <use xlink:href="#ArialMT-31"/>
       <use xlink:href="#ArialMT-2c" x="55.615234"/>
       <use xlink:href="#ArialMT-30" x="83.398438"/>
      </g>
     </g>
    </g>
    <g id="text_6">
     <!-- vader_score -->
     <g style="fill: #262626" transform="translate(520.485 660.56375)scale(0.12 -0.12)">
      <defs>
       <path id="ArialMT-76" d="M 1344 0 
L 81 3319 
L 675 3319 
L 1388 1331 
Q 1503 1009 1600 663 
Q 1675 925 1809 1294 
L 2547 3319 
L 3125 3319 
L 1869 0 
L 1344 0 
z
" transform="scale(0.015625)"/>
       <path id="ArialMT-61" d="M 2588 409 
Q 2275 144 1986 34 
Q 1697 -75 1366 -75 
Q 819 -75 525 192 
Q 231 459 231 875 
Q 231 1119 342 1320 
Q 453 1522 633 1644 
Q 813 1766 1038 1828 
Q 1203 1872 1538 1913 
Q 2219 1994 2541 2106 
Q 2544 2222 2544 2253 
Q 2544 2597 2384 2738 
Q 2169 2928 1744 2928 
Q 1347 2928 1158 2789 
Q 969 2650 878 2297 
L 328 2372 
Q 403 2725 575 2942 
Q 747 3159 1072 3276 
Q 1397 3394 1825 3394 
Q 2250 3394 2515 3294 
Q 2781 3194 2906 3042 
Q 3031 2891 3081 2659 
Q 3109 2516 3109 2141 
L 3109 1391 
Q 3109 606 3145 398 
Q 3181 191 3288 0 
L 2700 0 
Q 2613 175 2588 409 
z
M 2541 1666 
Q 2234 1541 1622 1453 
Q 1275 1403 1131 1340 
Q 988 1278 909 1158 
Q 831 1038 831 891 
Q 831 666 1001 516 
Q 1172 366 1500 366 
Q 1825 366 2078 508 
Q 2331 650 2450 897 
Q 2541 1088 2541 1459 
L 2541 1666 
z
" transform="scale(0.015625)"/>
       <path id="ArialMT-64" d="M 2575 0 
L 2575 419 
Q 2259 -75 1647 -75 
Q 1250 -75 917 144 
Q 584 363 401 755 
Q 219 1147 219 1656 
Q 219 2153 384 2558 
Q 550 2963 881 3178 
Q 1213 3394 1622 3394 
Q 1922 3394 2156 3267 
Q 2391 3141 2538 2938 
L 2538 4581 
L 3097 4581 
L 3097 0 
L 2575 0 
z
M 797 1656 
Q 797 1019 1065 703 
Q 1334 388 1700 388 
Q 2069 388 2326 689 
Q 2584 991 2584 1609 
Q 2584 2291 2321 2609 
Q 2059 2928 1675 2928 
Q 1300 2928 1048 2622 
Q 797 2316 797 1656 
z
" transform="scale(0.015625)"/>
       <path id="ArialMT-65" d="M 2694 1069 
L 3275 997 
Q 3138 488 2766 206 
Q 2394 -75 1816 -75 
Q 1088 -75 661 373 
Q 234 822 234 1631 
Q 234 2469 665 2931 
Q 1097 3394 1784 3394 
Q 2450 3394 2872 2941 
Q 3294 2488 3294 1666 
Q 3294 1616 3291 1516 
L 816 1516 
Q 847 969 1125 678 
Q 1403 388 1819 388 
Q 2128 388 2347 550 
Q 2566 713 2694 1069 
z
M 847 1978 
L 2700 1978 
Q 2663 2397 2488 2606 
Q 2219 2931 1791 2931 
Q 1403 2931 1139 2672 
Q 875 2413 847 1978 
z
" transform="scale(0.015625)"/>
       <path id="ArialMT-72" d="M 416 0 
L 416 3319 
L 922 3319 
L 922 2816 
Q 1116 3169 1280 3281 
Q 1444 3394 1641 3394 
Q 1925 3394 2219 3213 
L 2025 2691 
Q 1819 2813 1613 2813 
Q 1428 2813 1281 2702 
Q 1134 2591 1072 2394 
Q 978 2094 978 1738 
L 978 0 
L 416 0 
z
" transform="scale(0.015625)"/>
       <path id="ArialMT-5f" d="M -97 -1272 
L -97 -866 
L 3631 -866 
L 3631 -1272 
L -97 -1272 
z
" transform="scale(0.015625)"/>
       <path id="ArialMT-73" d="M 197 991 
L 753 1078 
Q 800 744 1014 566 
Q 1228 388 1613 388 
Q 2000 388 2187 545 
Q 2375 703 2375 916 
Q 2375 1106 2209 1216 
Q 2094 1291 1634 1406 
Q 1016 1563 777 1677 
Q 538 1791 414 1992 
Q 291 2194 291 2438 
Q 291 2659 392 2848 
Q 494 3038 669 3163 
Q 800 3259 1026 3326 
Q 1253 3394 1513 3394 
Q 1903 3394 2198 3281 
Q 2494 3169 2634 2976 
Q 2775 2784 2828 2463 
L 2278 2388 
Q 2241 2644 2061 2787 
Q 1881 2931 1553 2931 
Q 1166 2931 1000 2803 
Q 834 2675 834 2503 
Q 834 2394 903 2306 
Q 972 2216 1119 2156 
Q 1203 2125 1616 2013 
Q 2213 1853 2448 1751 
Q 2684 1650 2818 1456 
Q 2953 1263 2953 975 
Q 2953 694 2789 445 
Q 2625 197 2315 61 
Q 2006 -75 1616 -75 
Q 969 -75 630 194 
Q 291 463 197 991 
z
" transform="scale(0.015625)"/>
       <path id="ArialMT-63" d="M 2588 1216 
L 3141 1144 
Q 3050 572 2676 248 
Q 2303 -75 1759 -75 
Q 1078 -75 664 370 
Q 250 816 250 1647 
Q 250 2184 428 2587 
Q 606 2991 970 3192 
Q 1334 3394 1763 3394 
Q 2303 3394 2647 3120 
Q 2991 2847 3088 2344 
L 2541 2259 
Q 2463 2594 2264 2762 
Q 2066 2931 1784 2931 
Q 1359 2931 1093 2626 
Q 828 2322 828 1663 
Q 828 994 1084 691 
Q 1341 388 1753 388 
Q 2084 388 2306 591 
Q 2528 794 2588 1216 
z
" transform="scale(0.015625)"/>
       <path id="ArialMT-6f" d="M 213 1659 
Q 213 2581 725 3025 
Q 1153 3394 1769 3394 
Q 2453 3394 2887 2945 
Q 3322 2497 3322 1706 
Q 3322 1066 3130 698 
Q 2938 331 2570 128 
Q 2203 -75 1769 -75 
Q 1072 -75 642 372 
Q 213 819 213 1659 
z
M 791 1659 
Q 791 1022 1069 705 
Q 1347 388 1769 388 
Q 2188 388 2466 706 
Q 2744 1025 2744 1678 
Q 2744 2294 2464 2611 
Q 2184 2928 1769 2928 
Q 1347 2928 1069 2612 
Q 791 2297 791 1659 
z
" transform="scale(0.015625)"/>
      </defs>
      <use xlink:href="#ArialMT-76"/>
      <use xlink:href="#ArialMT-61" x="50"/>
      <use xlink:href="#ArialMT-64" x="105.615234"/>
      <use xlink:href="#ArialMT-65" x="161.230469"/>
      <use xlink:href="#ArialMT-72" x="216.845703"/>
      <use xlink:href="#ArialMT-5f" x="250.146484"/>
      <use xlink:href="#ArialMT-73" x="305.761719"/>
      <use xlink:href="#ArialMT-63" x="355.761719"/>
      <use xlink:href="#ArialMT-6f" x="405.761719"/>
      <use xlink:href="#ArialMT-72" x="461.376953"/>
      <use xlink:href="#ArialMT-65" x="494.677734"/>
     </g>
    </g>
   </g>
   <g id="matplotlib.axis_2">
    <g id="ytick_1">
     <g id="text_7">
      <!-- 0 -->
      <g style="fill: #262626" transform="translate(121.326875 634.294688)scale(0.12 -0.12)">
       <use xlink:href="#ArialMT-30"/>
      </g>
     </g>
    </g>
    <g id="ytick_2">
     <g id="text_8">
      <!-- 10 -->
      <g style="fill: #262626" transform="translate(114.65375 559.561227)scale(0.12 -0.12)">
       <use xlink:href="#ArialMT-31"/>
       <use xlink:href="#ArialMT-30" x="55.615234"/>
      </g>
     </g>
    </g>
    <g id="ytick_3">
     <g id="text_9">
      <!-- 20 -->
      <g style="fill: #262626" transform="translate(114.65375 484.827766)scale(0.12 -0.12)">
       <defs>
        <path id="ArialMT-32" d="M 3222 541 
L 3222 0 
L 194 0 
Q 188 203 259 391 
Q 375 700 629 1000 
Q 884 1300 1366 1694 
Q 2113 2306 2375 2664 
Q 2638 3022 2638 3341 
Q 2638 3675 2398 3904 
Q 2159 4134 1775 4134 
Q 1369 4134 1125 3890 
Q 881 3647 878 3216 
L 300 3275 
Q 359 3922 746 4261 
Q 1134 4600 1788 4600 
Q 2447 4600 2831 4234 
Q 3216 3869 3216 3328 
Q 3216 3053 3103 2787 
Q 2991 2522 2730 2228 
Q 2469 1934 1863 1422 
Q 1356 997 1212 845 
Q 1069 694 975 541 
L 3222 541 
z
" transform="scale(0.015625)"/>
       </defs>
       <use xlink:href="#ArialMT-32"/>
       <use xlink:href="#ArialMT-30" x="55.615234"/>
      </g>
     </g>
    </g>
    <g id="ytick_4">
     <g id="text_10">
      <!-- 30 -->
      <g style="fill: #262626" transform="translate(114.65375 410.094305)scale(0.12 -0.12)">
       <defs>
        <path id="ArialMT-33" d="M 269 1209 
L 831 1284 
Q 928 806 1161 595 
Q 1394 384 1728 384 
Q 2125 384 2398 659 
Q 2672 934 2672 1341 
Q 2672 1728 2419 1979 
Q 2166 2231 1775 2231 
Q 1616 2231 1378 2169 
L 1441 2663 
Q 1497 2656 1531 2656 
Q 1891 2656 2178 2843 
Q 2466 3031 2466 3422 
Q 2466 3731 2256 3934 
Q 2047 4138 1716 4138 
Q 1388 4138 1169 3931 
Q 950 3725 888 3313 
L 325 3413 
Q 428 3978 793 4289 
Q 1159 4600 1703 4600 
Q 2078 4600 2393 4439 
Q 2709 4278 2876 4000 
Q 3044 3722 3044 3409 
Q 3044 3113 2884 2869 
Q 2725 2625 2413 2481 
Q 2819 2388 3044 2092 
Q 3269 1797 3269 1353 
Q 3269 753 2831 336 
Q 2394 -81 1725 -81 
Q 1122 -81 723 278 
Q 325 638 269 1209 
z
" transform="scale(0.015625)"/>
       </defs>
       <use xlink:href="#ArialMT-33"/>
       <use xlink:href="#ArialMT-30" x="55.615234"/>
      </g>
     </g>
    </g>
    <g id="ytick_5">
     <g id="text_11">
      <!-- 40 -->
      <g style="fill: #262626" transform="translate(114.65375 335.360845)scale(0.12 -0.12)">
       <defs>
        <path id="ArialMT-34" d="M 2069 0 
L 2069 1097 
L 81 1097 
L 81 1613 
L 2172 4581 
L 2631 4581 
L 2631 1613 
L 3250 1613 
L 3250 1097 
L 2631 1097 
L 2631 0 
L 2069 0 
z
M 2069 1613 
L 2069 3678 
L 634 1613 
L 2069 1613 
z
" transform="scale(0.015625)"/>
       </defs>
       <use xlink:href="#ArialMT-34"/>
       <use xlink:href="#ArialMT-30" x="55.615234"/>
      </g>
     </g>
    </g>
    <g id="ytick_6">
     <g id="text_12">
      <!-- 50 -->
      <g style="fill: #262626" transform="translate(114.65375 260.627384)scale(0.12 -0.12)">
       <use xlink:href="#ArialMT-35"/>
       <use xlink:href="#ArialMT-30" x="55.615234"/>
      </g>
     </g>
    </g>
    <g id="ytick_7">
     <g id="text_13">
      <!-- 60 -->
      <g style="fill: #262626" transform="translate(114.65375 185.893923)scale(0.12 -0.12)">
       <defs>
        <path id="ArialMT-36" d="M 3184 3459 
L 2625 3416 
Q 2550 3747 2413 3897 
Q 2184 4138 1850 4138 
Q 1581 4138 1378 3988 
Q 1113 3794 959 3422 
Q 806 3050 800 2363 
Q 1003 2672 1297 2822 
Q 1591 2972 1913 2972 
Q 2475 2972 2870 2558 
Q 3266 2144 3266 1488 
Q 3266 1056 3080 686 
Q 2894 316 2569 119 
Q 2244 -78 1831 -78 
Q 1128 -78 684 439 
Q 241 956 241 2144 
Q 241 3472 731 4075 
Q 1159 4600 1884 4600 
Q 2425 4600 2770 4297 
Q 3116 3994 3184 3459 
z
M 888 1484 
Q 888 1194 1011 928 
Q 1134 663 1356 523 
Q 1578 384 1822 384 
Q 2178 384 2434 671 
Q 2691 959 2691 1453 
Q 2691 1928 2437 2201 
Q 2184 2475 1800 2475 
Q 1419 2475 1153 2201 
Q 888 1928 888 1484 
z
" transform="scale(0.015625)"/>
       </defs>
       <use xlink:href="#ArialMT-36"/>
       <use xlink:href="#ArialMT-30" x="55.615234"/>
      </g>
     </g>
    </g>
    <g id="ytick_8">
     <g id="text_14">
      <!-- 70 -->
      <g style="fill: #262626" transform="translate(114.65375 111.160463)scale(0.12 -0.12)">
       <defs>
        <path id="ArialMT-37" d="M 303 3981 
L 303 4522 
L 3269 4522 
L 3269 4084 
Q 2831 3619 2401 2847 
Q 1972 2075 1738 1259 
Q 1569 684 1522 0 
L 944 0 
Q 953 541 1156 1306 
Q 1359 2072 1739 2783 
Q 2119 3494 2547 3981 
L 303 3981 
z
" transform="scale(0.015625)"/>
       </defs>
       <use xlink:href="#ArialMT-37"/>
       <use xlink:href="#ArialMT-30" x="55.615234"/>
      </g>
     </g>
    </g>
    <g id="text_15">
     <!-- Density -->
     <g style="fill: #262626" transform="translate(108.128125 378.20625)rotate(-90)scale(0.12 -0.12)">
      <defs>
       <path id="ArialMT-44" d="M 494 0 
L 494 4581 
L 2072 4581 
Q 2606 4581 2888 4516 
Q 3281 4425 3559 4188 
Q 3922 3881 4101 3404 
Q 4281 2928 4281 2316 
Q 4281 1794 4159 1391 
Q 4038 988 3847 723 
Q 3656 459 3429 307 
Q 3203 156 2883 78 
Q 2563 0 2147 0 
L 494 0 
z
M 1100 541 
L 2078 541 
Q 2531 541 2789 625 
Q 3047 709 3200 863 
Q 3416 1078 3536 1442 
Q 3656 1806 3656 2325 
Q 3656 3044 3420 3430 
Q 3184 3816 2847 3947 
Q 2603 4041 2063 4041 
L 1100 4041 
L 1100 541 
z
" transform="scale(0.015625)"/>
       <path id="ArialMT-6e" d="M 422 0 
L 422 3319 
L 928 3319 
L 928 2847 
Q 1294 3394 1984 3394 
Q 2284 3394 2536 3286 
Q 2788 3178 2913 3003 
Q 3038 2828 3088 2588 
Q 3119 2431 3119 2041 
L 3119 0 
L 2556 0 
L 2556 2019 
Q 2556 2363 2490 2533 
Q 2425 2703 2258 2804 
Q 2091 2906 1866 2906 
Q 1506 2906 1245 2678 
Q 984 2450 984 1813 
L 984 0 
L 422 0 
z
" transform="scale(0.015625)"/>
       <path id="ArialMT-69" d="M 425 3934 
L 425 4581 
L 988 4581 
L 988 3934 
L 425 3934 
z
M 425 0 
L 425 3319 
L 988 3319 
L 988 0 
L 425 0 
z
" transform="scale(0.015625)"/>
       <path id="ArialMT-74" d="M 1650 503 
L 1731 6 
Q 1494 -44 1306 -44 
Q 1000 -44 831 53 
Q 663 150 594 308 
Q 525 466 525 972 
L 525 2881 
L 113 2881 
L 113 3319 
L 525 3319 
L 525 4141 
L 1084 4478 
L 1084 3319 
L 1650 3319 
L 1650 2881 
L 1084 2881 
L 1084 941 
Q 1084 700 1114 631 
Q 1144 563 1211 522 
Q 1278 481 1403 481 
Q 1497 481 1650 503 
z
" transform="scale(0.015625)"/>
       <path id="ArialMT-79" d="M 397 -1278 
L 334 -750 
Q 519 -800 656 -800 
Q 844 -800 956 -737 
Q 1069 -675 1141 -563 
Q 1194 -478 1313 -144 
Q 1328 -97 1363 -6 
L 103 3319 
L 709 3319 
L 1400 1397 
Q 1534 1031 1641 628 
Q 1738 1016 1872 1384 
L 2581 3319 
L 3144 3319 
L 1881 -56 
Q 1678 -603 1566 -809 
Q 1416 -1088 1222 -1217 
Q 1028 -1347 759 -1347 
Q 597 -1347 397 -1278 
z
" transform="scale(0.015625)"/>
      </defs>
      <use xlink:href="#ArialMT-44"/>
      <use xlink:href="#ArialMT-65" x="72.216797"/>
      <use xlink:href="#ArialMT-6e" x="127.832031"/>
      <use xlink:href="#ArialMT-73" x="183.447266"/>
      <use xlink:href="#ArialMT-69" x="233.447266"/>
      <use xlink:href="#ArialMT-74" x="255.664062"/>
      <use xlink:href="#ArialMT-79" x="283.447266"/>
     </g>
    </g>
   </g>
   <g id="line2d_1">
    <path d="M 178.026219 629.99688 
L 185.569457 629.917744 
L 193.112694 629.717231 
L 200.655932 629.858721 
L 208.19917 629.97363 
L 257.230214 629.951073 
L 268.54507 629.80532 
L 279.859927 629.830426 
L 302.48964 629.753679 
L 313.804496 629.95233 
L 321.347734 629.786368 
L 328.890971 629.358998 
L 336.434209 629.25183 
L 343.977447 629.679343 
L 347.749065 629.862145 
L 355.292303 629.934903 
L 362.835541 629.826658 
L 366.607159 629.535027 
L 370.378778 629.115675 
L 374.150397 628.947484 
L 377.922016 629.221313 
L 381.693635 629.612384 
L 385.465253 629.816942 
L 393.008491 629.860981 
L 400.551729 629.722687 
L 408.094966 629.20796 
L 411.866585 629.190114 
L 419.409823 629.573974 
L 426.95306 629.662815 
L 434.496298 629.446686 
L 442.039536 628.854471 
L 445.811154 628.818942 
L 453.354392 629.306123 
L 457.126011 629.276833 
L 460.89763 629.064331 
L 464.669248 628.996025 
L 468.440867 629.134316 
L 472.212486 629.12957 
L 479.755724 628.2295 
L 483.527342 628.180177 
L 491.07058 628.739379 
L 506.157055 628.753141 
L 509.928674 628.601234 
L 517.471912 628.133964 
L 525.015149 628.385444 
L 528.786768 628.313885 
L 532.558387 628.064945 
L 536.330006 627.522726 
L 540.101625 624.226754 
L 543.873243 609.972027 
L 547.644862 577.16494 
L 551.416481 542.812828 
L 555.1881 542.824813 
L 558.959719 577.180767 
L 562.731337 609.912349 
L 566.502956 623.953901 
L 570.274575 626.862012 
L 574.046194 626.851452 
L 577.817813 626.531273 
L 581.589431 626.05007 
L 589.132669 624.440752 
L 592.904288 624.056648 
L 596.675907 623.212681 
L 600.447525 622.067677 
L 604.219144 622.168594 
L 607.990763 623.543707 
L 611.762382 624.706434 
L 615.534001 624.780446 
L 619.305619 623.493921 
L 623.077238 621.684452 
L 626.848857 621.506271 
L 630.620476 623.16717 
L 634.392095 624.041192 
L 638.163714 622.483932 
L 641.935332 620.41892 
L 645.706951 620.897618 
L 649.47857 623.454304 
L 653.250189 625.283108 
L 657.021808 625.430975 
L 660.793426 624.858151 
L 664.565045 624.690409 
L 672.108283 625.75949 
L 675.879902 625.749975 
L 679.65152 625.624376 
L 687.194758 626.084785 
L 690.966377 626.086702 
L 694.737996 625.971672 
L 698.509614 626.195226 
L 702.281233 626.774628 
L 706.052852 627.181243 
L 717.367708 627.691578 
L 721.139327 627.567174 
L 724.910946 626.630284 
L 728.682565 624.789261 
L 732.454184 623.516421 
L 736.225802 624.425199 
L 739.997421 626.52866 
L 743.76904 627.912397 
L 747.540659 628.288754 
L 758.855515 628.207436 
L 762.627134 627.842091 
L 766.398753 627.26192 
L 770.170372 627.0525 
L 773.941991 627.43023 
L 777.713609 627.973431 
L 781.485228 628.395024 
L 789.028466 628.8828 
L 792.800085 628.8465 
L 796.571703 628.213026 
L 800.343322 626.875603 
L 804.114941 625.839336 
L 807.88656 626.295167 
L 811.658179 627.656836 
L 815.429797 628.540131 
L 819.201416 628.688997 
L 822.973035 628.670384 
L 826.744654 628.79171 
L 830.516273 628.68032 
L 834.287891 627.789316 
L 838.05951 626.46474 
L 841.831129 626.131356 
L 845.602748 627.300351 
L 849.374367 628.682304 
L 853.145985 629.260351 
L 872.00408 629.163154 
L 875.775698 629.110601 
L 883.318936 629.194642 
L 887.090555 629.036354 
L 890.862174 628.994322 
L 898.405411 629.538293 
L 902.17703 629.165075 
L 905.948649 627.647265 
L 909.720268 625.496371 
L 913.491886 624.75073 
L 917.263505 626.321358 
L 921.035124 628.454166 
L 924.806743 629.610785 
L 928.578362 629.941297 
L 928.578362 629.941297 
" clip-path="url(#pbb3167068b)" style="fill: none; stroke: #e24a33; stroke-width: 1.5; stroke-linecap: round"/>
   </g>
   <g id="line2d_2">
    <path d="M 173.045455 629.99999 
L 211.282092 629.911253 
L 283.931704 629.279457 
L 295.402695 629.229086 
L 325.992005 629.166118 
L 356.581316 628.535649 
L 371.875971 628.585873 
L 379.523298 628.627683 
L 390.99429 628.781046 
L 402.465281 628.668214 
L 410.112608 628.563787 
L 417.759936 628.608825 
L 425.407264 628.289805 
L 429.230927 628.102511 
L 433.054591 628.086324 
L 444.525582 628.484564 
L 455.996574 628.489632 
L 471.291229 629.034346 
L 494.233212 629.222925 
L 505.704203 629.148132 
L 513.35153 629.02443 
L 520.998858 629.129638 
L 524.822522 629.235914 
L 528.646185 629.225062 
L 532.469849 628.680455 
L 536.293513 626.317273 
L 540.117177 619.523228 
L 543.940841 605.91975 
L 547.764504 587.826152 
L 551.588168 574.488601 
L 555.411832 575.256787 
L 559.235496 589.521003 
L 563.059159 607.421955 
L 566.882823 620.247483 
L 570.706487 626.302152 
L 574.530151 628.140172 
L 578.353815 628.380581 
L 582.177478 628.37179 
L 597.472133 628.93965 
L 608.943125 628.795225 
L 612.766788 628.663345 
L 620.414116 628.061587 
L 624.23778 627.736992 
L 628.061444 627.598594 
L 635.708771 627.832486 
L 639.532435 627.934042 
L 643.356099 627.897514 
L 647.179762 627.703563 
L 658.650754 626.59892 
L 666.298081 625.790329 
L 673.945409 624.47105 
L 677.769073 624.155449 
L 681.592736 624.32754 
L 685.4164 624.752517 
L 689.240064 625.028711 
L 693.063728 624.930048 
L 708.358383 623.444067 
L 712.182047 623.474541 
L 716.00571 623.904135 
L 723.653038 625.154316 
L 727.476702 625.478191 
L 742.771357 626.151211 
L 746.595021 626.117992 
L 750.418684 625.905031 
L 761.889676 624.787736 
L 769.537003 624.611905 
L 773.360667 624.312336 
L 777.184331 623.865546 
L 781.007995 623.666994 
L 784.831658 623.959727 
L 792.478986 625.163835 
L 796.30265 625.5518 
L 800.126313 625.727051 
L 803.949977 625.723941 
L 819.244632 625.157657 
L 834.539287 625.519055 
L 849.833942 625.459274 
L 865.128598 625.388837 
L 880.423253 625.230122 
L 884.246916 625.343162 
L 888.07058 625.61366 
L 891.894244 626.078955 
L 899.541571 627.477102 
L 907.188899 628.890421 
L 911.012563 629.390514 
L 914.836227 629.71379 
L 922.483554 629.964065 
L 933.954545 629.9997 
L 933.954545 629.9997 
" clip-path="url(#pbb3167068b)" style="fill: none; stroke: #348abd; stroke-width: 1.5; stroke-linecap: round"/>
   </g>
   <g id="line2d_3">
    <path d="M 191.173991 629.999996 
L 493.250864 629.981558 
L 496.890344 629.818607 
L 500.529825 629.998651 
L 504.169305 629.641386 
L 507.808785 629.966638 
L 511.448266 629.872289 
L 515.087746 629.342823 
L 518.727227 629.982921 
L 522.366707 628.372661 
L 526.006187 629.936278 
L 529.645668 628.472818 
L 533.285148 628.775276 
L 536.924629 629.804616 
L 540.564109 617.472933 
L 544.203589 629.891359 
L 547.84307 615.555882 
L 551.48255 625.360611 
L 555.122031 625.360508 
L 558.761511 600.66804 
L 562.400991 629.26176 
L 566.040472 112.285714 
L 569.679952 625.4724 
L 573.319433 601.682035 
L 576.958913 576.185741 
L 580.598393 627.746167 
L 584.237874 522.302092 
L 587.877354 629.226956 
L 591.516834 600.623567 
L 595.156315 621.75835 
L 598.795795 627.846991 
L 602.435276 606.25142 
L 606.074756 629.899706 
L 609.714236 615.271319 
L 613.353717 628.665813 
L 616.993197 627.810007 
L 620.632678 623.026088 
L 624.272158 629.919475 
L 627.911638 622.420173 
L 631.551119 629.774457 
L 635.190599 627.6782 
L 642.46956 629.917444 
L 646.10904 627.642283 
L 649.748521 629.979744 
L 653.388001 628.755026 
L 657.027482 629.677359 
L 660.666962 629.861664 
L 664.306442 629.220781 
L 667.945923 629.996941 
L 671.585403 629.653152 
L 675.224884 629.98414 
L 678.864364 629.957275 
L 682.503844 629.63014 
L 686.143325 629.993365 
L 689.782805 629.878529 
L 693.422285 629.998064 
L 707.980207 629.970672 
L 722.538129 629.999232 
L 802.606697 629.999808 
L 915.430589 629.999996 
L 915.430589 629.999996 
" clip-path="url(#pbb3167068b)" style="fill: none; stroke: #988ed5; stroke-width: 1.5; stroke-linecap: round"/>
   </g>
   <g id="patch_3">
    <path d="M 135 630 
L 135 86.4 
" style="fill: none; stroke: #262626; stroke-linejoin: miter; stroke-linecap: square"/>
   </g>
   <g id="patch_4">
    <path d="M 972 630 
L 972 86.4 
" style="fill: none; stroke: #262626; stroke-linejoin: miter; stroke-linecap: square"/>
   </g>
   <g id="patch_5">
    <path d="M 135 630 
L 972 630 
" style="fill: none; stroke: #262626; stroke-linejoin: miter; stroke-linecap: square"/>
   </g>
   <g id="patch_6">
    <path d="M 135 86.4 
L 972 86.4 
" style="fill: none; stroke: #262626; stroke-linejoin: miter; stroke-linecap: square"/>
   </g>
   <g id="legend_1">
    <g id="patch_7">
     <path d="M 796.4775 146.923125 
L 963.6 146.923125 
Q 966 146.923125 966 144.523125 
L 966 94.8 
Q 966 92.4 963.6 92.4 
L 796.4775 92.4 
Q 794.0775 92.4 794.0775 94.8 
L 794.0775 144.523125 
Q 794.0775 146.923125 796.4775 146.923125 
z
" style="fill: #ffffff; opacity: 0.8; stroke: #cccccc; stroke-width: 0.5; stroke-linejoin: miter"/>
    </g>
    <g id="line2d_4">
     <path d="M 798.8775 101.589375 
L 810.8775 101.589375 
L 822.8775 101.589375 
" style="fill: none; stroke: #e24a33; stroke-width: 1.5; stroke-linecap: round"/>
    </g>
    <g id="text_16">
     <!-- Textblob score -->
     <g style="fill: #262626" transform="translate(832.4775 105.789375)scale(0.12 -0.12)">
      <defs>
       <path id="ArialMT-54" d="M 1659 0 
L 1659 4041 
L 150 4041 
L 150 4581 
L 3781 4581 
L 3781 4041 
L 2266 4041 
L 2266 0 
L 1659 0 
z
" transform="scale(0.015625)"/>
       <path id="ArialMT-78" d="M 47 0 
L 1259 1725 
L 138 3319 
L 841 3319 
L 1350 2541 
Q 1494 2319 1581 2169 
Q 1719 2375 1834 2534 
L 2394 3319 
L 3066 3319 
L 1919 1756 
L 3153 0 
L 2463 0 
L 1781 1031 
L 1600 1309 
L 728 0 
L 47 0 
z
" transform="scale(0.015625)"/>
       <path id="ArialMT-62" d="M 941 0 
L 419 0 
L 419 4581 
L 981 4581 
L 981 2947 
Q 1338 3394 1891 3394 
Q 2197 3394 2470 3270 
Q 2744 3147 2920 2923 
Q 3097 2700 3197 2384 
Q 3297 2069 3297 1709 
Q 3297 856 2875 390 
Q 2453 -75 1863 -75 
Q 1275 -75 941 416 
L 941 0 
z
M 934 1684 
Q 934 1088 1097 822 
Q 1363 388 1816 388 
Q 2184 388 2453 708 
Q 2722 1028 2722 1663 
Q 2722 2313 2464 2622 
Q 2206 2931 1841 2931 
Q 1472 2931 1203 2611 
Q 934 2291 934 1684 
z
" transform="scale(0.015625)"/>
       <path id="ArialMT-6c" d="M 409 0 
L 409 4581 
L 972 4581 
L 972 0 
L 409 0 
z
" transform="scale(0.015625)"/>
       <path id="ArialMT-20" transform="scale(0.015625)"/>
      </defs>
      <use xlink:href="#ArialMT-54"/>
      <use xlink:href="#ArialMT-65" x="49.958984"/>
      <use xlink:href="#ArialMT-78" x="105.574219"/>
      <use xlink:href="#ArialMT-74" x="155.574219"/>
      <use xlink:href="#ArialMT-62" x="183.357422"/>
      <use xlink:href="#ArialMT-6c" x="238.972656"/>
      <use xlink:href="#ArialMT-6f" x="261.189453"/>
      <use xlink:href="#ArialMT-62" x="316.804688"/>
      <use xlink:href="#ArialMT-20" x="372.419922"/>
      <use xlink:href="#ArialMT-73" x="400.203125"/>
      <use xlink:href="#ArialMT-63" x="450.203125"/>
      <use xlink:href="#ArialMT-6f" x="500.203125"/>
      <use xlink:href="#ArialMT-72" x="555.818359"/>
      <use xlink:href="#ArialMT-65" x="589.119141"/>
     </g>
    </g>
    <g id="line2d_5">
     <path d="M 798.8775 118.56375 
L 810.8775 118.56375 
L 822.8775 118.56375 
" style="fill: none; stroke: #348abd; stroke-width: 1.5; stroke-linecap: round"/>
    </g>
    <g id="text_17">
     <!-- Vader score -->
     <g style="fill: #262626" transform="translate(832.4775 122.76375)scale(0.12 -0.12)">
      <defs>
       <path id="ArialMT-56" d="M 1803 0 
L 28 4581 
L 684 4581 
L 1875 1253 
Q 2019 853 2116 503 
Q 2222 878 2363 1253 
L 3600 4581 
L 4219 4581 
L 2425 0 
L 1803 0 
z
" transform="scale(0.015625)"/>
      </defs>
      <use xlink:href="#ArialMT-56"/>
      <use xlink:href="#ArialMT-61" x="59.324219"/>
      <use xlink:href="#ArialMT-64" x="114.939453"/>
      <use xlink:href="#ArialMT-65" x="170.554688"/>
      <use xlink:href="#ArialMT-72" x="226.169922"/>
      <use xlink:href="#ArialMT-20" x="259.470703"/>
      <use xlink:href="#ArialMT-73" x="287.253906"/>
      <use xlink:href="#ArialMT-63" x="337.253906"/>
      <use xlink:href="#ArialMT-6f" x="387.253906"/>
      <use xlink:href="#ArialMT-72" x="442.869141"/>
      <use xlink:href="#ArialMT-65" x="476.169922"/>
     </g>
    </g>
    <g id="line2d_6">
     <path d="M 798.8775 135.538125 
L 810.8775 135.538125 
L 822.8775 135.538125 
" style="fill: none; stroke: #988ed5; stroke-width: 1.5; stroke-linecap: round"/>
    </g>
    <g id="text_18">
     <!-- Afinn score normalizado -->
     <g style="fill: #262626" transform="translate(832.4775 139.738125)scale(0.12 -0.12)">
      <defs>
       <path id="ArialMT-41" d="M -9 0 
L 1750 4581 
L 2403 4581 
L 4278 0 
L 3588 0 
L 3053 1388 
L 1138 1388 
L 634 0 
L -9 0 
z
M 1313 1881 
L 2866 1881 
L 2388 3150 
Q 2169 3728 2063 4100 
Q 1975 3659 1816 3225 
L 1313 1881 
z
" transform="scale(0.015625)"/>
       <path id="ArialMT-66" d="M 556 0 
L 556 2881 
L 59 2881 
L 59 3319 
L 556 3319 
L 556 3672 
Q 556 4006 616 4169 
Q 697 4388 901 4523 
Q 1106 4659 1475 4659 
Q 1713 4659 2000 4603 
L 1916 4113 
Q 1741 4144 1584 4144 
Q 1328 4144 1222 4034 
Q 1116 3925 1116 3625 
L 1116 3319 
L 1763 3319 
L 1763 2881 
L 1116 2881 
L 1116 0 
L 556 0 
z
" transform="scale(0.015625)"/>
       <path id="ArialMT-6d" d="M 422 0 
L 422 3319 
L 925 3319 
L 925 2853 
Q 1081 3097 1340 3245 
Q 1600 3394 1931 3394 
Q 2300 3394 2536 3241 
Q 2772 3088 2869 2813 
Q 3263 3394 3894 3394 
Q 4388 3394 4653 3120 
Q 4919 2847 4919 2278 
L 4919 0 
L 4359 0 
L 4359 2091 
Q 4359 2428 4304 2576 
Q 4250 2725 4106 2815 
Q 3963 2906 3769 2906 
Q 3419 2906 3187 2673 
Q 2956 2441 2956 1928 
L 2956 0 
L 2394 0 
L 2394 2156 
Q 2394 2531 2256 2718 
Q 2119 2906 1806 2906 
Q 1569 2906 1367 2781 
Q 1166 2656 1075 2415 
Q 984 2175 984 1722 
L 984 0 
L 422 0 
z
" transform="scale(0.015625)"/>
       <path id="ArialMT-7a" d="M 125 0 
L 125 456 
L 2238 2881 
Q 1878 2863 1603 2863 
L 250 2863 
L 250 3319 
L 2963 3319 
L 2963 2947 
L 1166 841 
L 819 456 
Q 1197 484 1528 484 
L 3063 484 
L 3063 0 
L 125 0 
z
" transform="scale(0.015625)"/>
      </defs>
      <use xlink:href="#ArialMT-41"/>
      <use xlink:href="#ArialMT-66" x="66.699219"/>
      <use xlink:href="#ArialMT-69" x="94.482422"/>
      <use xlink:href="#ArialMT-6e" x="116.699219"/>
      <use xlink:href="#ArialMT-6e" x="172.314453"/>
      <use xlink:href="#ArialMT-20" x="227.929688"/>
      <use xlink:href="#ArialMT-73" x="255.712891"/>
      <use xlink:href="#ArialMT-63" x="305.712891"/>
      <use xlink:href="#ArialMT-6f" x="355.712891"/>
      <use xlink:href="#ArialMT-72" x="411.328125"/>
      <use xlink:href="#ArialMT-65" x="444.628906"/>
      <use xlink:href="#ArialMT-20" x="500.244141"/>
      <use xlink:href="#ArialMT-6e" x="528.027344"/>
      <use xlink:href="#ArialMT-6f" x="583.642578"/>
      <use xlink:href="#ArialMT-72" x="639.257812"/>
      <use xlink:href="#ArialMT-6d" x="672.558594"/>
      <use xlink:href="#ArialMT-61" x="755.859375"/>
      <use xlink:href="#ArialMT-6c" x="811.474609"/>
      <use xlink:href="#ArialMT-69" x="833.691406"/>
      <use xlink:href="#ArialMT-7a" x="855.908203"/>
      <use xlink:href="#ArialMT-61" x="905.908203"/>
      <use xlink:href="#ArialMT-64" x="961.523438"/>
      <use xlink:href="#ArialMT-6f" x="1017.138672"/>
     </g>
    </g>
   </g>
  </g>
 </g>
 <defs>
  <clipPath id="pbb3167068b">
   <rect x="135" y="86.4" width="837" height="543.6"/>
  </clipPath>
 </defs>
</svg>
