<?xml version="1.0" encoding="utf-8" standalone="no"?>
<!DOCTYPE svg PUBLIC "-//W3C//DTD SVG 1.1//EN"
  "http://www.w3.org/Graphics/SVG/1.1/DTD/svg11.dtd">
<svg xmlns:xlink="http://www.w3.org/1999/xlink" width="1080pt" height="720pt" viewBox="0 0 1080 720" xmlns="http://www.w3.org/2000/svg" version="1.1">
 <metadata>
  <rdf:RDF xmlns:dc="http://purl.org/dc/elements/1.1/" xmlns:cc="http://creativecommons.org/ns#" xmlns:rdf="http://www.w3.org/1999/02/22-rdf-syntax-ns#">
   <cc:Work>
    <dc:type rdf:resource="http://purl.org/dc/dcmitype/StillImage"/>
    <dc:date>2022-05-27T20:34:43.016746</dc:date>
    <dc:format>image/svg+xml</dc:format>
    <dc:creator>
     <cc:Agent>
      <dc:title>Matplotlib v3.5.1, https://matplotlib.org/</dc:title>
     </cc:Agent>
    </dc:creator>
   </cc:Work>
  </rdf:RDF>
 </metadata>
 <defs>
  <style type="text/css">*{stroke-linejoin: round; stroke-linecap: butt}</style>
 </defs>
 <g id="figure_1">
  <g id="patch_1">
   <path d="M 0 720 
L 1080 720 
L 1080 0 
L 0 0 
z
" style="fill: #ffffff"/>
  </g>
  <g id="axes_1">
   <g id="patch_2">
    <path d="M 135 630 
L 972 630 
L 972 86.4 
L 135 86.4 
z
" style="fill: #ffffff"/>
   </g>
   <g id="matplotlib.axis_1">
    <g id="xtick_1">
     <g id="text_1">
      <!-- −1,0 -->
      <g style="fill: #262626" transform="translate(181.985862 645.589375)scale(0.12 -0.12)">
       <defs>
        <path id="ArialMT-2212" d="M 3381 1997 
L 356 1997 
L 356 2522 
L 3381 2522 
L 3381 1997 
z
" transform="scale(0.015625)"/>
        <path id="ArialMT-31" d="M 2384 0 
L 1822 0 
L 1822 3584 
Q 1619 3391 1289 3197 
Q 959 3003 697 2906 
L 697 3450 
Q 1169 3672 1522 3987 
Q 1875 4303 2022 4600 
L 2384 4600 
L 2384 0 
z
" transform="scale(0.015625)"/>
        <path id="ArialMT-2c" d="M 569 0 
L 569 641 
L 1209 641 
L 1209 0 
Q 1209 -353 1084 -570 
Q 959 -788 688 -906 
L 531 -666 
Q 709 -588 793 -436 
Q 878 -284 888 0 
L 569 0 
z
" transform="scale(0.015625)"/>
        <path id="ArialMT-30" d="M 266 2259 
Q 266 3072 433 3567 
Q 600 4063 929 4331 
Q 1259 4600 1759 4600 
Q 2128 4600 2406 4451 
Q 2684 4303 2865 4023 
Q 3047 3744 3150 3342 
Q 3253 2941 3253 2259 
Q 3253 1453 3087 958 
Q 2922 463 2592 192 
Q 2263 -78 1759 -78 
Q 1097 -78 719 397 
Q 266 969 266 2259 
z
M 844 2259 
Q 844 1131 1108 757 
Q 1372 384 1759 384 
Q 2147 384 2411 759 
Q 2675 1134 2675 2259 
Q 2675 3391 2411 3762 
Q 2147 4134 1753 4134 
Q 1366 4134 1134 3806 
Q 844 3388 844 2259 
z
" transform="scale(0.015625)"/>
       </defs>
       <use xlink:href="#ArialMT-2212"/>
       <use xlink:href="#ArialMT-31" x="58.398438"/>
       <use xlink:href="#ArialMT-2c" x="114.013672"/>
       <use xlink:href="#ArialMT-30" x="141.796875"/>
      </g>
     </g>
    </g>
    <g id="xtick_2">
     <g id="text_2">
      <!-- −0,5 -->
      <g style="fill: #262626" transform="translate(361.721889 645.589375)scale(0.12 -0.12)">
       <defs>
        <path id="ArialMT-35" d="M 266 1200 
L 856 1250 
Q 922 819 1161 601 
Q 1400 384 1738 384 
Q 2144 384 2425 690 
Q 2706 997 2706 1503 
Q 2706 1984 2436 2262 
Q 2166 2541 1728 2541 
Q 1456 2541 1237 2417 
Q 1019 2294 894 2097 
L 366 2166 
L 809 4519 
L 3088 4519 
L 3088 3981 
L 1259 3981 
L 1013 2750 
Q 1425 3038 1878 3038 
Q 2478 3038 2890 2622 
Q 3303 2206 3303 1553 
Q 3303 931 2941 478 
Q 2500 -78 1738 -78 
Q 1113 -78 717 272 
Q 322 622 266 1200 
z
" transform="scale(0.015625)"/>
       </defs>
       <use xlink:href="#ArialMT-2212"/>
       <use xlink:href="#ArialMT-30" x="58.398438"/>
       <use xlink:href="#ArialMT-2c" x="114.013672"/>
       <use xlink:href="#ArialMT-35" x="141.796875"/>
      </g>
     </g>
    </g>
    <g id="xtick_3">
     <g id="text_3">
      <!-- 0,0 -->
      <g style="fill: #262626" transform="translate(544.96229 645.589375)scale(0.12 -0.12)">
       <use xlink:href="#ArialMT-30"/>
       <use xlink:href="#ArialMT-2c" x="55.615234"/>
       <use xlink:href="#ArialMT-30" x="83.398438"/>
      </g>
     </g>
    </g>
    <g id="xtick_4">
     <g id="text_4">
      <!-- 0,5 -->
      <g style="fill: #262626" transform="translate(724.698317 645.589375)scale(0.12 -0.12)">
       <use xlink:href="#ArialMT-30"/>
       <use xlink:href="#ArialMT-2c" x="55.615234"/>
       <use xlink:href="#ArialMT-35" x="83.398438"/>
      </g>
     </g>
    </g>
    <g id="xtick_5">
     <g id="text_5">
      <!-- 1,0 -->
      <g style="fill: #262626" transform="translate(904.434344 645.589375)scale(0.12 -0.12)">
       <use xlink:href="#ArialMT-31"/>
       <use xlink:href="#ArialMT-2c" x="55.615234"/>
       <use xlink:href="#ArialMT-30" x="83.398438"/>
      </g>
     </g>
    </g>
    <g id="text_6">
     <!-- vader_score -->
     <g style="fill: #262626" transform="translate(520.485 660.56375)scale(0.12 -0.12)">
      <defs>
       <path id="ArialMT-76" d="M 1344 0 
L 81 3319 
L 675 3319 
L 1388 1331 
Q 1503 1009 1600 663 
Q 1675 925 1809 1294 
L 2547 3319 
L 3125 3319 
L 1869 0 
L 1344 0 
z
" transform="scale(0.015625)"/>
       <path id="ArialMT-61" d="M 2588 409 
Q 2275 144 1986 34 
Q 1697 -75 1366 -75 
Q 819 -75 525 192 
Q 231 459 231 875 
Q 231 1119 342 1320 
Q 453 1522 633 1644 
Q 813 1766 1038 1828 
Q 1203 1872 1538 1913 
Q 2219 1994 2541 2106 
Q 2544 2222 2544 2253 
Q 2544 2597 2384 2738 
Q 2169 2928 1744 2928 
Q 1347 2928 1158 2789 
Q 969 2650 878 2297 
L 328 2372 
Q 403 2725 575 2942 
Q 747 3159 1072 3276 
Q 1397 3394 1825 3394 
Q 2250 3394 2515 3294 
Q 2781 3194 2906 3042 
Q 3031 2891 3081 2659 
Q 3109 2516 3109 2141 
L 3109 1391 
Q 3109 606 3145 398 
Q 3181 191 3288 0 
L 2700 0 
Q 2613 175 2588 409 
z
M 2541 1666 
Q 2234 1541 1622 1453 
Q 1275 1403 1131 1340 
Q 988 1278 909 1158 
Q 831 1038 831 891 
Q 831 666 1001 516 
Q 1172 366 1500 366 
Q 1825 366 2078 508 
Q 2331 650 2450 897 
Q 2541 1088 2541 1459 
L 2541 1666 
z
" transform="scale(0.015625)"/>
       <path id="ArialMT-64" d="M 2575 0 
L 2575 419 
Q 2259 -75 1647 -75 
Q 1250 -75 917 144 
Q 584 363 401 755 
Q 219 1147 219 1656 
Q 219 2153 384 2558 
Q 550 2963 881 3178 
Q 1213 3394 1622 3394 
Q 1922 3394 2156 3267 
Q 2391 3141 2538 2938 
L 2538 4581 
L 3097 4581 
L 3097 0 
L 2575 0 
z
M 797 1656 
Q 797 1019 1065 703 
Q 1334 388 1700 388 
Q 2069 388 2326 689 
Q 2584 991 2584 1609 
Q 2584 2291 2321 2609 
Q 2059 2928 1675 2928 
Q 1300 2928 1048 2622 
Q 797 2316 797 1656 
z
" transform="scale(0.015625)"/>
       <path id="ArialMT-65" d="M 2694 1069 
L 3275 997 
Q 3138 488 2766 206 
Q 2394 -75 1816 -75 
Q 1088 -75 661 373 
Q 234 822 234 1631 
Q 234 2469 665 2931 
Q 1097 3394 1784 3394 
Q 2450 3394 2872 2941 
Q 3294 2488 3294 1666 
Q 3294 1616 3291 1516 
L 816 1516 
Q 847 969 1125 678 
Q 1403 388 1819 388 
Q 2128 388 2347 550 
Q 2566 713 2694 1069 
z
M 847 1978 
L 2700 1978 
Q 2663 2397 2488 2606 
Q 2219 2931 1791 2931 
Q 1403 2931 1139 2672 
Q 875 2413 847 1978 
z
" transform="scale(0.015625)"/>
       <path id="ArialMT-72" d="M 416 0 
L 416 3319 
L 922 3319 
L 922 2816 
Q 1116 3169 1280 3281 
Q 1444 3394 1641 3394 
Q 1925 3394 2219 3213 
L 2025 2691 
Q 1819 2813 1613 2813 
Q 1428 2813 1281 2702 
Q 1134 2591 1072 2394 
Q 978 2094 978 1738 
L 978 0 
L 416 0 
z
" transform="scale(0.015625)"/>
       <path id="ArialMT-5f" d="M -97 -1272 
L -97 -866 
L 3631 -866 
L 3631 -1272 
L -97 -1272 
z
" transform="scale(0.015625)"/>
       <path id="ArialMT-73" d="M 197 991 
L 753 1078 
Q 800 744 1014 566 
Q 1228 388 1613 388 
Q 2000 388 2187 545 
Q 2375 703 2375 916 
Q 2375 1106 2209 1216 
Q 2094 1291 1634 1406 
Q 1016 1563 777 1677 
Q 538 1791 414 1992 
Q 291 2194 291 2438 
Q 291 2659 392 2848 
Q 494 3038 669 3163 
Q 800 3259 1026 3326 
Q 1253 3394 1513 3394 
Q 1903 3394 2198 3281 
Q 2494 3169 2634 2976 
Q 2775 2784 2828 2463 
L 2278 2388 
Q 2241 2644 2061 2787 
Q 1881 2931 1553 2931 
Q 1166 2931 1000 2803 
Q 834 2675 834 2503 
Q 834 2394 903 2306 
Q 972 2216 1119 2156 
Q 1203 2125 1616 2013 
Q 2213 1853 2448 1751 
Q 2684 1650 2818 1456 
Q 2953 1263 2953 975 
Q 2953 694 2789 445 
Q 2625 197 2315 61 
Q 2006 -75 1616 -75 
Q 969 -75 630 194 
Q 291 463 197 991 
z
" transform="scale(0.015625)"/>
       <path id="ArialMT-63" d="M 2588 1216 
L 3141 1144 
Q 3050 572 2676 248 
Q 2303 -75 1759 -75 
Q 1078 -75 664 370 
Q 250 816 250 1647 
Q 250 2184 428 2587 
Q 606 2991 970 3192 
Q 1334 3394 1763 3394 
Q 2303 3394 2647 3120 
Q 2991 2847 3088 2344 
L 2541 2259 
Q 2463 2594 2264 2762 
Q 2066 2931 1784 2931 
Q 1359 2931 1093 2626 
Q 828 2322 828 1663 
Q 828 994 1084 691 
Q 1341 388 1753 388 
Q 2084 388 2306 591 
Q 2528 794 2588 1216 
z
" transform="scale(0.015625)"/>
       <path id="ArialMT-6f" d="M 213 1659 
Q 213 2581 725 3025 
Q 1153 3394 1769 3394 
Q 2453 3394 2887 2945 
Q 3322 2497 3322 1706 
Q 3322 1066 3130 698 
Q 2938 331 2570 128 
Q 2203 -75 1769 -75 
Q 1072 -75 642 372 
Q 213 819 213 1659 
z
M 791 1659 
Q 791 1022 1069 705 
Q 1347 388 1769 388 
Q 2188 388 2466 706 
Q 2744 1025 2744 1678 
Q 2744 2294 2464 2611 
Q 2184 2928 1769 2928 
Q 1347 2928 1069 2612 
Q 791 2297 791 1659 
z
" transform="scale(0.015625)"/>
      </defs>
      <use xlink:href="#ArialMT-76"/>
      <use xlink:href="#ArialMT-61" x="50"/>
      <use xlink:href="#ArialMT-64" x="105.615234"/>
      <use xlink:href="#ArialMT-65" x="161.230469"/>
      <use xlink:href="#ArialMT-72" x="216.845703"/>
      <use xlink:href="#ArialMT-5f" x="250.146484"/>
      <use xlink:href="#ArialMT-73" x="305.761719"/>
      <use xlink:href="#ArialMT-63" x="355.761719"/>
      <use xlink:href="#ArialMT-6f" x="405.761719"/>
      <use xlink:href="#ArialMT-72" x="461.376953"/>
      <use xlink:href="#ArialMT-65" x="494.677734"/>
     </g>
    </g>
   </g>
   <g id="matplotlib.axis_2">
    <g id="ytick_1">
     <g id="text_7">
      <!-- 0 -->
      <g style="fill: #262626" transform="translate(121.326875 634.294688)scale(0.12 -0.12)">
       <use xlink:href="#ArialMT-30"/>
      </g>
     </g>
    </g>
    <g id="ytick_2">
     <g id="text_8">
      <!-- 5 -->
      <g style="fill: #262626" transform="translate(121.326875 522.380509)scale(0.12 -0.12)">
       <use xlink:href="#ArialMT-35"/>
      </g>
     </g>
    </g>
    <g id="ytick_3">
     <g id="text_9">
      <!-- 10 -->
      <g style="fill: #262626" transform="translate(114.65375 410.466331)scale(0.12 -0.12)">
       <use xlink:href="#ArialMT-31"/>
       <use xlink:href="#ArialMT-30" x="55.615234"/>
      </g>
     </g>
    </g>
    <g id="ytick_4">
     <g id="text_10">
      <!-- 15 -->
      <g style="fill: #262626" transform="translate(114.65375 298.552153)scale(0.12 -0.12)">
       <use xlink:href="#ArialMT-31"/>
       <use xlink:href="#ArialMT-35" x="55.615234"/>
      </g>
     </g>
    </g>
    <g id="ytick_5">
     <g id="text_11">
      <!-- 20 -->
      <g style="fill: #262626" transform="translate(114.65375 186.637975)scale(0.12 -0.12)">
       <defs>
        <path id="ArialMT-32" d="M 3222 541 
L 3222 0 
L 194 0 
Q 188 203 259 391 
Q 375 700 629 1000 
Q 884 1300 1366 1694 
Q 2113 2306 2375 2664 
Q 2638 3022 2638 3341 
Q 2638 3675 2398 3904 
Q 2159 4134 1775 4134 
Q 1369 4134 1125 3890 
Q 881 3647 878 3216 
L 300 3275 
Q 359 3922 746 4261 
Q 1134 4600 1788 4600 
Q 2447 4600 2831 4234 
Q 3216 3869 3216 3328 
Q 3216 3053 3103 2787 
Q 2991 2522 2730 2228 
Q 2469 1934 1863 1422 
Q 1356 997 1212 845 
Q 1069 694 975 541 
L 3222 541 
z
" transform="scale(0.015625)"/>
       </defs>
       <use xlink:href="#ArialMT-32"/>
       <use xlink:href="#ArialMT-30" x="55.615234"/>
      </g>
     </g>
    </g>
    <g id="text_12">
     <!-- Density -->
     <g style="fill: #262626" transform="translate(108.128125 378.20625)rotate(-90)scale(0.12 -0.12)">
      <defs>
       <path id="ArialMT-44" d="M 494 0 
L 494 4581 
L 2072 4581 
Q 2606 4581 2888 4516 
Q 3281 4425 3559 4188 
Q 3922 3881 4101 3404 
Q 4281 2928 4281 2316 
Q 4281 1794 4159 1391 
Q 4038 988 3847 723 
Q 3656 459 3429 307 
Q 3203 156 2883 78 
Q 2563 0 2147 0 
L 494 0 
z
M 1100 541 
L 2078 541 
Q 2531 541 2789 625 
Q 3047 709 3200 863 
Q 3416 1078 3536 1442 
Q 3656 1806 3656 2325 
Q 3656 3044 3420 3430 
Q 3184 3816 2847 3947 
Q 2603 4041 2063 4041 
L 1100 4041 
L 1100 541 
z
" transform="scale(0.015625)"/>
       <path id="ArialMT-6e" d="M 422 0 
L 422 3319 
L 928 3319 
L 928 2847 
Q 1294 3394 1984 3394 
Q 2284 3394 2536 3286 
Q 2788 3178 2913 3003 
Q 3038 2828 3088 2588 
Q 3119 2431 3119 2041 
L 3119 0 
L 2556 0 
L 2556 2019 
Q 2556 2363 2490 2533 
Q 2425 2703 2258 2804 
Q 2091 2906 1866 2906 
Q 1506 2906 1245 2678 
Q 984 2450 984 1813 
L 984 0 
L 422 0 
z
" transform="scale(0.015625)"/>
       <path id="ArialMT-69" d="M 425 3934 
L 425 4581 
L 988 4581 
L 988 3934 
L 425 3934 
z
M 425 0 
L 425 3319 
L 988 3319 
L 988 0 
L 425 0 
z
" transform="scale(0.015625)"/>
       <path id="ArialMT-74" d="M 1650 503 
L 1731 6 
Q 1494 -44 1306 -44 
Q 1000 -44 831 53 
Q 663 150 594 308 
Q 525 466 525 972 
L 525 2881 
L 113 2881 
L 113 3319 
L 525 3319 
L 525 4141 
L 1084 4478 
L 1084 3319 
L 1650 3319 
L 1650 2881 
L 1084 2881 
L 1084 941 
Q 1084 700 1114 631 
Q 1144 563 1211 522 
Q 1278 481 1403 481 
Q 1497 481 1650 503 
z
" transform="scale(0.015625)"/>
       <path id="ArialMT-79" d="M 397 -1278 
L 334 -750 
Q 519 -800 656 -800 
Q 844 -800 956 -737 
Q 1069 -675 1141 -563 
Q 1194 -478 1313 -144 
Q 1328 -97 1363 -6 
L 103 3319 
L 709 3319 
L 1400 1397 
Q 1534 1031 1641 628 
Q 1738 1016 1872 1384 
L 2581 3319 
L 3144 3319 
L 1881 -56 
Q 1678 -603 1566 -809 
Q 1416 -1088 1222 -1217 
Q 1028 -1347 759 -1347 
Q 597 -1347 397 -1278 
z
" transform="scale(0.015625)"/>
      </defs>
      <use xlink:href="#ArialMT-44"/>
      <use xlink:href="#ArialMT-65" x="72.216797"/>
      <use xlink:href="#ArialMT-6e" x="127.832031"/>
      <use xlink:href="#ArialMT-73" x="183.447266"/>
      <use xlink:href="#ArialMT-69" x="233.447266"/>
      <use xlink:href="#ArialMT-74" x="255.664062"/>
      <use xlink:href="#ArialMT-79" x="283.447266"/>
     </g>
    </g>
   </g>
   <g id="line2d_1">
    <path d="M 178.026219 629.990656 
L 181.797838 629.93803 
L 185.569457 629.753642 
L 193.112694 629.153101 
L 196.884313 629.25248 
L 204.427551 629.825027 
L 211.970788 629.928952 
L 242.143739 629.931071 
L 253.458595 629.949189 
L 261.001833 629.651536 
L 264.773452 629.452897 
L 268.54507 629.416931 
L 276.088308 629.57035 
L 283.631546 629.425773 
L 291.174783 629.57142 
L 302.48964 629.262262 
L 310.032877 629.76626 
L 313.804496 629.857226 
L 317.576115 629.751875 
L 321.347734 629.360167 
L 328.890971 628.080184 
L 332.66259 627.757551 
L 336.434209 627.759214 
L 340.205828 628.252391 
L 343.977447 629.039627 
L 347.749065 629.587122 
L 351.520684 629.773682 
L 359.063922 629.768986 
L 362.835541 629.480837 
L 366.607159 628.607397 
L 370.378778 627.351427 
L 374.150397 626.847692 
L 377.922016 627.667815 
L 381.693635 628.83908 
L 385.465253 629.451737 
L 389.236872 629.588055 
L 396.78011 629.508463 
L 400.551729 629.169441 
L 408.094966 627.627822 
L 411.866585 627.574373 
L 419.409823 628.724042 
L 423.181442 628.966192 
L 426.95306 628.990123 
L 430.724679 628.831234 
L 434.496298 628.342812 
L 442.039536 626.569116 
L 445.811154 626.462706 
L 453.354392 627.921825 
L 457.126011 627.834098 
L 460.89763 627.19765 
L 464.669248 626.993072 
L 468.440867 627.407258 
L 472.212486 627.393044 
L 475.984105 626.186131 
L 479.755724 624.697314 
L 483.527342 624.549589 
L 487.298961 625.550178 
L 491.07058 626.224412 
L 506.157055 626.26563 
L 509.928674 625.810664 
L 513.700293 624.970331 
L 517.471912 624.411182 
L 521.243531 624.70356 
L 525.015149 625.164371 
L 528.786768 624.95005 
L 532.558387 624.204467 
L 536.330006 622.580511 
L 540.101625 612.709003 
L 543.873243 570.01578 
L 547.644862 471.757834 
L 551.416481 368.872504 
L 555.1881 368.908402 
L 558.959719 471.805237 
L 562.731337 569.837045 
L 566.502956 611.891802 
L 570.274575 620.601656 
L 574.046194 620.570031 
L 577.817813 619.611085 
L 581.589431 618.169873 
L 585.36105 615.609182 
L 589.132669 613.349929 
L 592.904288 612.199531 
L 596.675907 609.67183 
L 600.447525 606.242518 
L 604.219144 606.544768 
L 607.990763 610.66326 
L 611.762382 614.145652 
L 615.534001 614.367321 
L 619.305619 610.514152 
L 623.077238 605.094751 
L 626.848857 604.561095 
L 630.620476 609.535523 
L 634.392095 612.153239 
L 638.163714 607.489211 
L 641.935332 601.304454 
L 645.706951 602.738165 
L 649.47857 610.395497 
L 653.250189 615.872806 
L 657.021808 616.31567 
L 660.793426 614.60005 
L 664.565045 614.097658 
L 672.108283 617.299581 
L 675.879902 617.271083 
L 679.65152 616.894911 
L 683.423139 617.50902 
L 687.194758 618.273845 
L 690.966377 618.279587 
L 694.737996 617.93507 
L 698.509614 618.604618 
L 702.281233 620.339941 
L 706.052852 621.557759 
L 713.59609 622.511824 
L 717.367708 623.086226 
L 721.139327 622.713633 
L 724.910946 619.907625 
L 728.682565 614.393723 
L 732.454184 610.581538 
L 736.225802 613.30335 
L 739.997421 619.603261 
L 743.76904 623.747583 
L 747.540659 624.874782 
L 755.083897 624.827754 
L 758.855515 624.631232 
L 762.627134 623.537016 
L 766.398753 621.799389 
L 770.170372 621.172174 
L 773.941991 622.303482 
L 777.713609 623.930383 
L 781.485228 625.193062 
L 785.256847 626.076288 
L 789.028466 626.653961 
L 792.800085 626.545243 
L 796.571703 624.647973 
L 800.343322 620.642361 
L 804.114941 617.53872 
L 807.88656 618.903945 
L 811.658179 622.982173 
L 815.429797 625.627661 
L 819.201416 626.073516 
L 822.973035 626.01777 
L 826.744654 626.381145 
L 830.516273 626.047529 
L 834.287891 623.378954 
L 838.05951 619.41182 
L 841.831129 618.413327 
L 845.602748 621.914492 
L 849.374367 626.053473 
L 853.145985 627.784735 
L 856.917604 627.785347 
L 860.689223 627.601319 
L 868.232461 627.675808 
L 875.775698 627.33623 
L 879.547317 627.522422 
L 883.318936 627.587937 
L 887.090555 627.113858 
L 890.862174 626.987971 
L 898.405411 628.617177 
L 902.17703 627.499382 
L 905.948649 622.953506 
L 909.720268 616.511532 
L 913.491886 614.27832 
L 917.263505 618.982387 
L 921.035124 625.370193 
L 924.806743 628.834293 
L 928.578362 629.824183 
L 928.578362 629.824183 
" clip-path="url(#pedf1e37989)" style="fill: none; stroke: #e24a33; stroke-width: 1.5; stroke-linecap: round"/>
   </g>
   <g id="line2d_2">
    <path d="M 173.045455 629.99997 
L 199.811101 629.915779 
L 218.92942 629.557406 
L 268.637049 628.349748 
L 276.284376 628.200902 
L 287.755368 627.697292 
L 314.521014 627.555463 
L 322.168342 627.620165 
L 325.992005 627.502504 
L 329.815669 627.231457 
L 341.286661 626.14835 
L 352.757652 625.652024 
L 356.581316 625.614236 
L 368.052307 625.866117 
L 375.699635 625.739667 
L 390.99429 626.349206 
L 398.641617 626.220592 
L 410.112608 625.698511 
L 417.759936 625.8334 
L 421.5836 625.520132 
L 429.230927 624.316978 
L 433.054591 624.268497 
L 440.701919 625.240756 
L 444.525582 625.461236 
L 452.17291 625.294173 
L 455.996574 625.476414 
L 467.467565 626.897583 
L 475.114893 627.244262 
L 486.585884 627.551813 
L 498.056875 627.685563 
L 505.704203 627.448637 
L 513.35153 627.078148 
L 517.175194 627.12668 
L 524.822522 627.711545 
L 528.646185 627.679045 
L 532.469849 626.047933 
L 536.293513 618.970152 
L 540.117177 598.621839 
L 543.940841 557.879123 
L 547.764504 503.688399 
L 551.588168 463.742142 
L 555.411832 466.042874 
L 559.235496 508.764516 
L 563.059159 562.378258 
L 566.882823 600.790998 
L 570.706487 618.924864 
L 574.530151 624.429774 
L 578.353815 625.149804 
L 582.177478 625.123476 
L 586.001142 625.540673 
L 589.824806 626.213821 
L 593.64847 626.689703 
L 597.472133 626.824228 
L 605.119461 626.599094 
L 608.943125 626.391674 
L 612.766788 625.996689 
L 616.590452 625.2507 
L 624.23778 623.222242 
L 628.061444 622.807737 
L 631.885107 623.027221 
L 635.708771 623.508246 
L 639.532435 623.812409 
L 643.356099 623.703008 
L 647.179762 623.122121 
L 651.003426 622.130313 
L 658.650754 619.813692 
L 662.474418 618.769195 
L 666.298081 617.391942 
L 673.945409 613.440673 
L 677.769073 612.495443 
L 681.592736 613.010858 
L 685.4164 614.283672 
L 689.240064 615.11088 
L 693.063728 614.815384 
L 696.887392 613.670368 
L 700.711055 612.331061 
L 704.534719 611.152571 
L 708.358383 610.364836 
L 712.182047 610.456106 
L 716.00571 611.74275 
L 719.829374 613.742827 
L 723.653038 615.48707 
L 727.476702 616.457082 
L 735.124029 617.463565 
L 738.947693 618.081593 
L 742.771357 618.472794 
L 746.595021 618.373301 
L 750.418684 617.735479 
L 754.242348 616.62728 
L 758.066012 615.328858 
L 761.889676 614.389154 
L 769.537003 613.862537 
L 773.360667 612.965321 
L 777.184331 611.627176 
L 781.007995 611.032508 
L 784.831658 611.909248 
L 792.478986 615.515581 
L 796.30265 616.677542 
L 800.126313 617.202424 
L 803.949977 617.19311 
L 807.773641 616.743647 
L 811.597305 616.073344 
L 815.420968 615.560968 
L 819.244632 615.497075 
L 830.715624 616.487866 
L 838.362951 616.596426 
L 846.010279 616.520326 
L 857.48127 616.189239 
L 868.952261 616.092823 
L 876.599589 615.704404 
L 880.423253 615.714111 
L 884.246916 616.052669 
L 888.07058 616.862816 
L 891.894244 618.256383 
L 895.717908 620.191446 
L 903.365235 624.702203 
L 907.188899 626.676787 
L 911.012563 628.174577 
L 914.836227 629.142796 
L 918.65989 629.66398 
L 922.483554 629.892373 
L 930.130882 629.994367 
L 933.954545 629.999102 
L 933.954545 629.999102 
" clip-path="url(#pedf1e37989)" style="fill: none; stroke: #348abd; stroke-width: 1.5; stroke-linecap: round"/>
   </g>
   <g id="line2d_3">
    <path d="M 185.490901 629.999997 
L 385.107133 629.915348 
L 414.679908 629.612365 
L 418.376504 629.431398 
L 422.073101 629.367524 
L 425.769698 628.754055 
L 429.466295 629.15808 
L 433.162892 628.594068 
L 436.859489 628.743155 
L 440.556086 628.21377 
L 444.252683 626.707195 
L 447.949279 628.457206 
L 451.645876 626.907391 
L 455.342473 626.222747 
L 459.03907 627.998903 
L 462.735667 620.962504 
L 466.432264 618.540828 
L 470.128861 627.053786 
L 473.825458 622.651279 
L 477.522054 610.543807 
L 481.218651 621.094359 
L 484.915248 628.609353 
L 488.611845 617.846117 
L 492.308442 593.859565 
L 496.005039 611.651965 
L 499.701636 628.409431 
L 503.398233 629.739823 
L 507.094829 623.107599 
L 510.791426 595.76006 
L 514.488023 600.980695 
L 518.18462 625.804064 
L 521.881217 629.896496 
L 529.274411 630 
L 547.757395 629.929215 
L 551.453992 621.946125 
L 555.150589 473.665952 
L 558.847186 112.285714 
L 562.543783 337.507598 
L 566.240379 601.807935 
L 569.936976 629.536417 
L 573.633573 629.998699 
L 595.813154 629.954682 
L 599.509751 626.562802 
L 603.206348 585.524209 
L 606.902945 531.818269 
L 610.599542 593.023507 
L 614.296139 627.613197 
L 617.992736 628.579643 
L 621.689333 599.881155 
L 625.385929 519.005294 
L 629.082526 560.209276 
L 632.779123 621.543983 
L 636.47572 606.582825 
L 640.172317 534.772427 
L 643.868914 563.466295 
L 647.565511 618.050746 
L 651.262108 595.012607 
L 654.958704 578.70277 
L 658.655301 614.674199 
L 662.351898 607.672953 
L 666.048495 596.982816 
L 669.745092 617.598455 
L 673.441689 608.225628 
L 677.138286 609.512321 
L 680.834883 618.891006 
L 684.531479 611.682323 
L 688.228076 619.908391 
L 691.924673 616.941066 
L 695.62127 619.737395 
L 699.317867 620.43594 
L 703.014464 620.779459 
L 706.711061 622.913358 
L 710.407658 622.800335 
L 714.104254 623.56985 
L 717.800851 623.918725 
L 721.497448 626.333456 
L 725.194045 627.083005 
L 732.587239 627.746218 
L 736.283836 627.663903 
L 739.980433 628.015277 
L 743.677029 628.21062 
L 747.373626 628.796408 
L 751.070223 629.214505 
L 754.76682 629.511131 
L 758.463417 629.660991 
L 765.856611 629.337884 
L 769.553208 629.69199 
L 773.249804 629.862862 
L 784.339595 629.952774 
L 791.732789 629.892097 
L 799.125983 629.986938 
L 861.96813 629.999292 
L 921.11368 629.999997 
L 921.11368 629.999997 
" clip-path="url(#pedf1e37989)" style="fill: none; stroke: #988ed5; stroke-width: 1.5; stroke-linecap: round"/>
   </g>
   <g id="patch_3">
    <path d="M 135 630 
L 135 86.4 
" style="fill: none; stroke: #262626; stroke-linejoin: miter; stroke-linecap: square"/>
   </g>
   <g id="patch_4">
    <path d="M 972 630 
L 972 86.4 
" style="fill: none; stroke: #262626; stroke-linejoin: miter; stroke-linecap: square"/>
   </g>
   <g id="patch_5">
    <path d="M 135 630 
L 972 630 
" style="fill: none; stroke: #262626; stroke-linejoin: miter; stroke-linecap: square"/>
   </g>
   <g id="patch_6">
    <path d="M 135 86.4 
L 972 86.4 
" style="fill: none; stroke: #262626; stroke-linejoin: miter; stroke-linecap: square"/>
   </g>
   <g id="legend_1">
    <g id="patch_7">
     <path d="M 738.79125 147.21 
L 963.6 147.21 
Q 966 147.21 966 144.81 
L 966 94.8 
Q 966 92.4 963.6 92.4 
L 738.79125 92.4 
Q 736.39125 92.4 736.39125 94.8 
L 736.39125 144.81 
Q 736.39125 147.21 738.79125 147.21 
z
" style="fill: #ffffff; opacity: 0.8; stroke: #cccccc; stroke-width: 0.5; stroke-linejoin: miter"/>
    </g>
    <g id="line2d_4">
     <path d="M 741.19125 101.589375 
L 753.19125 101.589375 
L 765.19125 101.589375 
" style="fill: none; stroke: #e24a33; stroke-width: 1.5; stroke-linecap: round"/>
    </g>
    <g id="text_13">
     <!-- Textblob score -->
     <g style="fill: #262626" transform="translate(774.79125 105.789375)scale(0.12 -0.12)">
      <defs>
       <path id="ArialMT-54" d="M 1659 0 
L 1659 4041 
L 150 4041 
L 150 4581 
L 3781 4581 
L 3781 4041 
L 2266 4041 
L 2266 0 
L 1659 0 
z
" transform="scale(0.015625)"/>
       <path id="ArialMT-78" d="M 47 0 
L 1259 1725 
L 138 3319 
L 841 3319 
L 1350 2541 
Q 1494 2319 1581 2169 
Q 1719 2375 1834 2534 
L 2394 3319 
L 3066 3319 
L 1919 1756 
L 3153 0 
L 2463 0 
L 1781 1031 
L 1600 1309 
L 728 0 
L 47 0 
z
" transform="scale(0.015625)"/>
       <path id="ArialMT-62" d="M 941 0 
L 419 0 
L 419 4581 
L 981 4581 
L 981 2947 
Q 1338 3394 1891 3394 
Q 2197 3394 2470 3270 
Q 2744 3147 2920 2923 
Q 3097 2700 3197 2384 
Q 3297 2069 3297 1709 
Q 3297 856 2875 390 
Q 2453 -75 1863 -75 
Q 1275 -75 941 416 
L 941 0 
z
M 934 1684 
Q 934 1088 1097 822 
Q 1363 388 1816 388 
Q 2184 388 2453 708 
Q 2722 1028 2722 1663 
Q 2722 2313 2464 2622 
Q 2206 2931 1841 2931 
Q 1472 2931 1203 2611 
Q 934 2291 934 1684 
z
" transform="scale(0.015625)"/>
       <path id="ArialMT-6c" d="M 409 0 
L 409 4581 
L 972 4581 
L 972 0 
L 409 0 
z
" transform="scale(0.015625)"/>
       <path id="ArialMT-20" transform="scale(0.015625)"/>
      </defs>
      <use xlink:href="#ArialMT-54"/>
      <use xlink:href="#ArialMT-65" x="49.958984"/>
      <use xlink:href="#ArialMT-78" x="105.574219"/>
      <use xlink:href="#ArialMT-74" x="155.574219"/>
      <use xlink:href="#ArialMT-62" x="183.357422"/>
      <use xlink:href="#ArialMT-6c" x="238.972656"/>
      <use xlink:href="#ArialMT-6f" x="261.189453"/>
      <use xlink:href="#ArialMT-62" x="316.804688"/>
      <use xlink:href="#ArialMT-20" x="372.419922"/>
      <use xlink:href="#ArialMT-73" x="400.203125"/>
      <use xlink:href="#ArialMT-63" x="450.203125"/>
      <use xlink:href="#ArialMT-6f" x="500.203125"/>
      <use xlink:href="#ArialMT-72" x="555.818359"/>
      <use xlink:href="#ArialMT-65" x="589.119141"/>
     </g>
    </g>
    <g id="line2d_5">
     <path d="M 741.19125 118.56375 
L 753.19125 118.56375 
L 765.19125 118.56375 
" style="fill: none; stroke: #348abd; stroke-width: 1.5; stroke-linecap: round"/>
    </g>
    <g id="text_14">
     <!-- Vader score -->
     <g style="fill: #262626" transform="translate(774.79125 122.76375)scale(0.12 -0.12)">
      <defs>
       <path id="ArialMT-56" d="M 1803 0 
L 28 4581 
L 684 4581 
L 1875 1253 
Q 2019 853 2116 503 
Q 2222 878 2363 1253 
L 3600 4581 
L 4219 4581 
L 2425 0 
L 1803 0 
z
" transform="scale(0.015625)"/>
      </defs>
      <use xlink:href="#ArialMT-56"/>
      <use xlink:href="#ArialMT-61" x="59.324219"/>
      <use xlink:href="#ArialMT-64" x="114.939453"/>
      <use xlink:href="#ArialMT-65" x="170.554688"/>
      <use xlink:href="#ArialMT-72" x="226.169922"/>
      <use xlink:href="#ArialMT-20" x="259.470703"/>
      <use xlink:href="#ArialMT-73" x="287.253906"/>
      <use xlink:href="#ArialMT-63" x="337.253906"/>
      <use xlink:href="#ArialMT-6f" x="387.253906"/>
      <use xlink:href="#ArialMT-72" x="442.869141"/>
      <use xlink:href="#ArialMT-65" x="476.169922"/>
     </g>
    </g>
    <g id="line2d_6">
     <path d="M 741.19125 135.684375 
L 753.19125 135.684375 
L 765.19125 135.684375 
" style="fill: none; stroke: #988ed5; stroke-width: 1.5; stroke-linecap: round"/>
    </g>
    <g id="text_15">
     <!-- Afinn score (raíz quadrada + norm) -->
     <g style="fill: #262626" transform="translate(774.79125 139.884375)scale(0.12 -0.12)">
      <defs>
       <path id="ArialMT-41" d="M -9 0 
L 1750 4581 
L 2403 4581 
L 4278 0 
L 3588 0 
L 3053 1388 
L 1138 1388 
L 634 0 
L -9 0 
z
M 1313 1881 
L 2866 1881 
L 2388 3150 
Q 2169 3728 2063 4100 
Q 1975 3659 1816 3225 
L 1313 1881 
z
" transform="scale(0.015625)"/>
       <path id="ArialMT-66" d="M 556 0 
L 556 2881 
L 59 2881 
L 59 3319 
L 556 3319 
L 556 3672 
Q 556 4006 616 4169 
Q 697 4388 901 4523 
Q 1106 4659 1475 4659 
Q 1713 4659 2000 4603 
L 1916 4113 
Q 1741 4144 1584 4144 
Q 1328 4144 1222 4034 
Q 1116 3925 1116 3625 
L 1116 3319 
L 1763 3319 
L 1763 2881 
L 1116 2881 
L 1116 0 
L 556 0 
z
" transform="scale(0.015625)"/>
       <path id="ArialMT-28" d="M 1497 -1347 
Q 1031 -759 709 28 
Q 388 816 388 1659 
Q 388 2403 628 3084 
Q 909 3875 1497 4659 
L 1900 4659 
Q 1522 4009 1400 3731 
Q 1209 3300 1100 2831 
Q 966 2247 966 1656 
Q 966 153 1900 -1347 
L 1497 -1347 
z
" transform="scale(0.015625)"/>
       <path id="ArialMT-ed" d="M 619 0 
L 619 3319 
L 1181 3319 
L 1181 0 
L 619 0 
z
M 590 3731 
L 1005 4606 
L 1743 4606 
L 1055 3731 
L 590 3731 
z
" transform="scale(0.015625)"/>
       <path id="ArialMT-7a" d="M 125 0 
L 125 456 
L 2238 2881 
Q 1878 2863 1603 2863 
L 250 2863 
L 250 3319 
L 2963 3319 
L 2963 2947 
L 1166 841 
L 819 456 
Q 1197 484 1528 484 
L 3063 484 
L 3063 0 
L 125 0 
z
" transform="scale(0.015625)"/>
       <path id="ArialMT-71" d="M 2538 -1272 
L 2538 353 
Q 2406 169 2170 47 
Q 1934 -75 1669 -75 
Q 1078 -75 651 397 
Q 225 869 225 1691 
Q 225 2191 398 2587 
Q 572 2984 901 3189 
Q 1231 3394 1625 3394 
Q 2241 3394 2594 2875 
L 2594 3319 
L 3100 3319 
L 3100 -1272 
L 2538 -1272 
z
M 803 1669 
Q 803 1028 1072 708 
Q 1341 388 1716 388 
Q 2075 388 2334 692 
Q 2594 997 2594 1619 
Q 2594 2281 2320 2615 
Q 2047 2950 1678 2950 
Q 1313 2950 1058 2639 
Q 803 2328 803 1669 
z
" transform="scale(0.015625)"/>
       <path id="ArialMT-75" d="M 2597 0 
L 2597 488 
Q 2209 -75 1544 -75 
Q 1250 -75 995 37 
Q 741 150 617 320 
Q 494 491 444 738 
Q 409 903 409 1263 
L 409 3319 
L 972 3319 
L 972 1478 
Q 972 1038 1006 884 
Q 1059 663 1231 536 
Q 1403 409 1656 409 
Q 1909 409 2131 539 
Q 2353 669 2445 892 
Q 2538 1116 2538 1541 
L 2538 3319 
L 3100 3319 
L 3100 0 
L 2597 0 
z
" transform="scale(0.015625)"/>
       <path id="ArialMT-2b" d="M 1603 741 
L 1603 1997 
L 356 1997 
L 356 2522 
L 1603 2522 
L 1603 3769 
L 2134 3769 
L 2134 2522 
L 3381 2522 
L 3381 1997 
L 2134 1997 
L 2134 741 
L 1603 741 
z
" transform="scale(0.015625)"/>
       <path id="ArialMT-6d" d="M 422 0 
L 422 3319 
L 925 3319 
L 925 2853 
Q 1081 3097 1340 3245 
Q 1600 3394 1931 3394 
Q 2300 3394 2536 3241 
Q 2772 3088 2869 2813 
Q 3263 3394 3894 3394 
Q 4388 3394 4653 3120 
Q 4919 2847 4919 2278 
L 4919 0 
L 4359 0 
L 4359 2091 
Q 4359 2428 4304 2576 
Q 4250 2725 4106 2815 
Q 3963 2906 3769 2906 
Q 3419 2906 3187 2673 
Q 2956 2441 2956 1928 
L 2956 0 
L 2394 0 
L 2394 2156 
Q 2394 2531 2256 2718 
Q 2119 2906 1806 2906 
Q 1569 2906 1367 2781 
Q 1166 2656 1075 2415 
Q 984 2175 984 1722 
L 984 0 
L 422 0 
z
" transform="scale(0.015625)"/>
       <path id="ArialMT-29" d="M 791 -1347 
L 388 -1347 
Q 1322 153 1322 1656 
Q 1322 2244 1188 2822 
Q 1081 3291 891 3722 
Q 769 4003 388 4659 
L 791 4659 
Q 1378 3875 1659 3084 
Q 1900 2403 1900 1659 
Q 1900 816 1576 28 
Q 1253 -759 791 -1347 
z
" transform="scale(0.015625)"/>
      </defs>
      <use xlink:href="#ArialMT-41"/>
      <use xlink:href="#ArialMT-66" x="66.699219"/>
      <use xlink:href="#ArialMT-69" x="94.482422"/>
      <use xlink:href="#ArialMT-6e" x="116.699219"/>
      <use xlink:href="#ArialMT-6e" x="172.314453"/>
      <use xlink:href="#ArialMT-20" x="227.929688"/>
      <use xlink:href="#ArialMT-73" x="255.712891"/>
      <use xlink:href="#ArialMT-63" x="305.712891"/>
      <use xlink:href="#ArialMT-6f" x="355.712891"/>
      <use xlink:href="#ArialMT-72" x="411.328125"/>
      <use xlink:href="#ArialMT-65" x="444.628906"/>
      <use xlink:href="#ArialMT-20" x="500.244141"/>
      <use xlink:href="#ArialMT-28" x="528.027344"/>
      <use xlink:href="#ArialMT-72" x="561.328125"/>
      <use xlink:href="#ArialMT-61" x="594.628906"/>
      <use xlink:href="#ArialMT-ed" x="650.244141"/>
      <use xlink:href="#ArialMT-7a" x="678.027344"/>
      <use xlink:href="#ArialMT-20" x="728.027344"/>
      <use xlink:href="#ArialMT-71" x="755.810547"/>
      <use xlink:href="#ArialMT-75" x="811.425781"/>
      <use xlink:href="#ArialMT-61" x="867.041016"/>
      <use xlink:href="#ArialMT-64" x="922.65625"/>
      <use xlink:href="#ArialMT-72" x="978.271484"/>
      <use xlink:href="#ArialMT-61" x="1011.572266"/>
      <use xlink:href="#ArialMT-64" x="1067.1875"/>
      <use xlink:href="#ArialMT-61" x="1122.802734"/>
      <use xlink:href="#ArialMT-20" x="1178.417969"/>
      <use xlink:href="#ArialMT-2b" x="1206.201172"/>
      <use xlink:href="#ArialMT-20" x="1264.599609"/>
      <use xlink:href="#ArialMT-6e" x="1292.382812"/>
      <use xlink:href="#ArialMT-6f" x="1347.998047"/>
      <use xlink:href="#ArialMT-72" x="1403.613281"/>
      <use xlink:href="#ArialMT-6d" x="1436.914062"/>
      <use xlink:href="#ArialMT-29" x="1520.214844"/>
     </g>
    </g>
   </g>
  </g>
 </g>
 <defs>
  <clipPath id="pedf1e37989">
   <rect x="135" y="86.4" width="837" height="543.6"/>
  </clipPath>
 </defs>
</svg>
