<?xml version="1.0" encoding="utf-8" standalone="no"?>
<!DOCTYPE svg PUBLIC "-//W3C//DTD SVG 1.1//EN"
  "http://www.w3.org/Graphics/SVG/1.1/DTD/svg11.dtd">
<svg xmlns:xlink="http://www.w3.org/1999/xlink" width="1080pt" height="720pt" viewBox="0 0 1080 720" xmlns="http://www.w3.org/2000/svg" version="1.1">
 <metadata>
  <rdf:RDF xmlns:dc="http://purl.org/dc/elements/1.1/" xmlns:cc="http://creativecommons.org/ns#" xmlns:rdf="http://www.w3.org/1999/02/22-rdf-syntax-ns#">
   <cc:Work>
    <dc:type rdf:resource="http://purl.org/dc/dcmitype/StillImage"/>
    <dc:date>2022-05-30T19:12:54.326521</dc:date>
    <dc:format>image/svg+xml</dc:format>
    <dc:creator>
     <cc:Agent>
      <dc:title>Matplotlib v3.5.1, https://matplotlib.org/</dc:title>
     </cc:Agent>
    </dc:creator>
   </cc:Work>
  </rdf:RDF>
 </metadata>
 <defs>
  <style type="text/css">*{stroke-linejoin: round; stroke-linecap: butt}</style>
 </defs>
 <g id="figure_1">
  <g id="patch_1">
   <path d="M 0 720 
L 1080 720 
L 1080 0 
L 0 0 
z
" style="fill: #ffffff"/>
  </g>
  <g id="axes_1">
   <g id="patch_2">
    <path d="M 135 630 
L 972 630 
L 972 86.4 
L 135 86.4 
z
" style="fill: #ffffff"/>
   </g>
   <g id="matplotlib.axis_1">
    <g id="xtick_1">
     <g id="text_1">
      <!-- −1,0 -->
      <g style="fill: #262626" transform="translate(183.959925 644.157812)scale(0.1 -0.1)">
       <defs>
        <path id="ArialMT-2212" d="M 3381 1997 
L 356 1997 
L 356 2522 
L 3381 2522 
L 3381 1997 
z
" transform="scale(0.015625)"/>
        <path id="ArialMT-31" d="M 2384 0 
L 1822 0 
L 1822 3584 
Q 1619 3391 1289 3197 
Q 959 3003 697 2906 
L 697 3450 
Q 1169 3672 1522 3987 
Q 1875 4303 2022 4600 
L 2384 4600 
L 2384 0 
z
" transform="scale(0.015625)"/>
        <path id="ArialMT-2c" d="M 569 0 
L 569 641 
L 1209 641 
L 1209 0 
Q 1209 -353 1084 -570 
Q 959 -788 688 -906 
L 531 -666 
Q 709 -588 793 -436 
Q 878 -284 888 0 
L 569 0 
z
" transform="scale(0.015625)"/>
        <path id="ArialMT-30" d="M 266 2259 
Q 266 3072 433 3567 
Q 600 4063 929 4331 
Q 1259 4600 1759 4600 
Q 2128 4600 2406 4451 
Q 2684 4303 2865 4023 
Q 3047 3744 3150 3342 
Q 3253 2941 3253 2259 
Q 3253 1453 3087 958 
Q 2922 463 2592 192 
Q 2263 -78 1759 -78 
Q 1097 -78 719 397 
Q 266 969 266 2259 
z
M 844 2259 
Q 844 1131 1108 757 
Q 1372 384 1759 384 
Q 2147 384 2411 759 
Q 2675 1134 2675 2259 
Q 2675 3391 2411 3762 
Q 2147 4134 1753 4134 
Q 1366 4134 1134 3806 
Q 844 3388 844 2259 
z
" transform="scale(0.015625)"/>
       </defs>
       <use xlink:href="#ArialMT-2212"/>
       <use xlink:href="#ArialMT-31" x="58.398438"/>
       <use xlink:href="#ArialMT-2c" x="114.013672"/>
       <use xlink:href="#ArialMT-30" x="141.796875"/>
      </g>
     </g>
    </g>
    <g id="xtick_2">
     <g id="text_2">
      <!-- −0,5 -->
      <g style="fill: #262626" transform="translate(363.695951 644.157812)scale(0.1 -0.1)">
       <defs>
        <path id="ArialMT-35" d="M 266 1200 
L 856 1250 
Q 922 819 1161 601 
Q 1400 384 1738 384 
Q 2144 384 2425 690 
Q 2706 997 2706 1503 
Q 2706 1984 2436 2262 
Q 2166 2541 1728 2541 
Q 1456 2541 1237 2417 
Q 1019 2294 894 2097 
L 366 2166 
L 809 4519 
L 3088 4519 
L 3088 3981 
L 1259 3981 
L 1013 2750 
Q 1425 3038 1878 3038 
Q 2478 3038 2890 2622 
Q 3303 2206 3303 1553 
Q 3303 931 2941 478 
Q 2500 -78 1738 -78 
Q 1113 -78 717 272 
Q 322 622 266 1200 
z
" transform="scale(0.015625)"/>
       </defs>
       <use xlink:href="#ArialMT-2212"/>
       <use xlink:href="#ArialMT-30" x="58.398438"/>
       <use xlink:href="#ArialMT-2c" x="114.013672"/>
       <use xlink:href="#ArialMT-35" x="141.796875"/>
      </g>
     </g>
    </g>
    <g id="xtick_3">
     <g id="text_3">
      <!-- 0,0 -->
      <g style="fill: #262626" transform="translate(546.35229 644.157812)scale(0.1 -0.1)">
       <use xlink:href="#ArialMT-30"/>
       <use xlink:href="#ArialMT-2c" x="55.615234"/>
       <use xlink:href="#ArialMT-30" x="83.398438"/>
      </g>
     </g>
    </g>
    <g id="xtick_4">
     <g id="text_4">
      <!-- 0,5 -->
      <g style="fill: #262626" transform="translate(726.088317 644.157812)scale(0.1 -0.1)">
       <use xlink:href="#ArialMT-30"/>
       <use xlink:href="#ArialMT-2c" x="55.615234"/>
       <use xlink:href="#ArialMT-35" x="83.398438"/>
      </g>
     </g>
    </g>
    <g id="xtick_5">
     <g id="text_5">
      <!-- 1,0 -->
      <g style="fill: #262626" transform="translate(905.824344 644.157812)scale(0.1 -0.1)">
       <use xlink:href="#ArialMT-31"/>
       <use xlink:href="#ArialMT-2c" x="55.615234"/>
       <use xlink:href="#ArialMT-30" x="83.398438"/>
      </g>
     </g>
    </g>
    <g id="text_6">
     <!-- Densidade -->
     <g style="fill: #262626" transform="translate(524.814375 658.734688)scale(0.12 -0.12)">
      <defs>
       <path id="ArialMT-44" d="M 494 0 
L 494 4581 
L 2072 4581 
Q 2606 4581 2888 4516 
Q 3281 4425 3559 4188 
Q 3922 3881 4101 3404 
Q 4281 2928 4281 2316 
Q 4281 1794 4159 1391 
Q 4038 988 3847 723 
Q 3656 459 3429 307 
Q 3203 156 2883 78 
Q 2563 0 2147 0 
L 494 0 
z
M 1100 541 
L 2078 541 
Q 2531 541 2789 625 
Q 3047 709 3200 863 
Q 3416 1078 3536 1442 
Q 3656 1806 3656 2325 
Q 3656 3044 3420 3430 
Q 3184 3816 2847 3947 
Q 2603 4041 2063 4041 
L 1100 4041 
L 1100 541 
z
" transform="scale(0.015625)"/>
       <path id="ArialMT-65" d="M 2694 1069 
L 3275 997 
Q 3138 488 2766 206 
Q 2394 -75 1816 -75 
Q 1088 -75 661 373 
Q 234 822 234 1631 
Q 234 2469 665 2931 
Q 1097 3394 1784 3394 
Q 2450 3394 2872 2941 
Q 3294 2488 3294 1666 
Q 3294 1616 3291 1516 
L 816 1516 
Q 847 969 1125 678 
Q 1403 388 1819 388 
Q 2128 388 2347 550 
Q 2566 713 2694 1069 
z
M 847 1978 
L 2700 1978 
Q 2663 2397 2488 2606 
Q 2219 2931 1791 2931 
Q 1403 2931 1139 2672 
Q 875 2413 847 1978 
z
" transform="scale(0.015625)"/>
       <path id="ArialMT-6e" d="M 422 0 
L 422 3319 
L 928 3319 
L 928 2847 
Q 1294 3394 1984 3394 
Q 2284 3394 2536 3286 
Q 2788 3178 2913 3003 
Q 3038 2828 3088 2588 
Q 3119 2431 3119 2041 
L 3119 0 
L 2556 0 
L 2556 2019 
Q 2556 2363 2490 2533 
Q 2425 2703 2258 2804 
Q 2091 2906 1866 2906 
Q 1506 2906 1245 2678 
Q 984 2450 984 1813 
L 984 0 
L 422 0 
z
" transform="scale(0.015625)"/>
       <path id="ArialMT-73" d="M 197 991 
L 753 1078 
Q 800 744 1014 566 
Q 1228 388 1613 388 
Q 2000 388 2187 545 
Q 2375 703 2375 916 
Q 2375 1106 2209 1216 
Q 2094 1291 1634 1406 
Q 1016 1563 777 1677 
Q 538 1791 414 1992 
Q 291 2194 291 2438 
Q 291 2659 392 2848 
Q 494 3038 669 3163 
Q 800 3259 1026 3326 
Q 1253 3394 1513 3394 
Q 1903 3394 2198 3281 
Q 2494 3169 2634 2976 
Q 2775 2784 2828 2463 
L 2278 2388 
Q 2241 2644 2061 2787 
Q 1881 2931 1553 2931 
Q 1166 2931 1000 2803 
Q 834 2675 834 2503 
Q 834 2394 903 2306 
Q 972 2216 1119 2156 
Q 1203 2125 1616 2013 
Q 2213 1853 2448 1751 
Q 2684 1650 2818 1456 
Q 2953 1263 2953 975 
Q 2953 694 2789 445 
Q 2625 197 2315 61 
Q 2006 -75 1616 -75 
Q 969 -75 630 194 
Q 291 463 197 991 
z
" transform="scale(0.015625)"/>
       <path id="ArialMT-69" d="M 425 3934 
L 425 4581 
L 988 4581 
L 988 3934 
L 425 3934 
z
M 425 0 
L 425 3319 
L 988 3319 
L 988 0 
L 425 0 
z
" transform="scale(0.015625)"/>
       <path id="ArialMT-64" d="M 2575 0 
L 2575 419 
Q 2259 -75 1647 -75 
Q 1250 -75 917 144 
Q 584 363 401 755 
Q 219 1147 219 1656 
Q 219 2153 384 2558 
Q 550 2963 881 3178 
Q 1213 3394 1622 3394 
Q 1922 3394 2156 3267 
Q 2391 3141 2538 2938 
L 2538 4581 
L 3097 4581 
L 3097 0 
L 2575 0 
z
M 797 1656 
Q 797 1019 1065 703 
Q 1334 388 1700 388 
Q 2069 388 2326 689 
Q 2584 991 2584 1609 
Q 2584 2291 2321 2609 
Q 2059 2928 1675 2928 
Q 1300 2928 1048 2622 
Q 797 2316 797 1656 
z
" transform="scale(0.015625)"/>
       <path id="ArialMT-61" d="M 2588 409 
Q 2275 144 1986 34 
Q 1697 -75 1366 -75 
Q 819 -75 525 192 
Q 231 459 231 875 
Q 231 1119 342 1320 
Q 453 1522 633 1644 
Q 813 1766 1038 1828 
Q 1203 1872 1538 1913 
Q 2219 1994 2541 2106 
Q 2544 2222 2544 2253 
Q 2544 2597 2384 2738 
Q 2169 2928 1744 2928 
Q 1347 2928 1158 2789 
Q 969 2650 878 2297 
L 328 2372 
Q 403 2725 575 2942 
Q 747 3159 1072 3276 
Q 1397 3394 1825 3394 
Q 2250 3394 2515 3294 
Q 2781 3194 2906 3042 
Q 3031 2891 3081 2659 
Q 3109 2516 3109 2141 
L 3109 1391 
Q 3109 606 3145 398 
Q 3181 191 3288 0 
L 2700 0 
Q 2613 175 2588 409 
z
M 2541 1666 
Q 2234 1541 1622 1453 
Q 1275 1403 1131 1340 
Q 988 1278 909 1158 
Q 831 1038 831 891 
Q 831 666 1001 516 
Q 1172 366 1500 366 
Q 1825 366 2078 508 
Q 2331 650 2450 897 
Q 2541 1088 2541 1459 
L 2541 1666 
z
" transform="scale(0.015625)"/>
      </defs>
      <use xlink:href="#ArialMT-44"/>
      <use xlink:href="#ArialMT-65" x="72.216797"/>
      <use xlink:href="#ArialMT-6e" x="127.832031"/>
      <use xlink:href="#ArialMT-73" x="183.447266"/>
      <use xlink:href="#ArialMT-69" x="233.447266"/>
      <use xlink:href="#ArialMT-64" x="255.664062"/>
      <use xlink:href="#ArialMT-61" x="311.279297"/>
      <use xlink:href="#ArialMT-64" x="366.894531"/>
      <use xlink:href="#ArialMT-65" x="422.509766"/>
     </g>
    </g>
   </g>
   <g id="matplotlib.axis_2">
    <g id="ytick_1">
     <g id="text_7">
      <!-- 0 -->
      <g style="fill: #262626" transform="translate(122.439063 633.578906)scale(0.1 -0.1)">
       <use xlink:href="#ArialMT-30"/>
      </g>
     </g>
    </g>
    <g id="ytick_2">
     <g id="text_8">
      <!-- 2 -->
      <g style="fill: #262626" transform="translate(122.439063 546.145828)scale(0.1 -0.1)">
       <defs>
        <path id="ArialMT-32" d="M 3222 541 
L 3222 0 
L 194 0 
Q 188 203 259 391 
Q 375 700 629 1000 
Q 884 1300 1366 1694 
Q 2113 2306 2375 2664 
Q 2638 3022 2638 3341 
Q 2638 3675 2398 3904 
Q 2159 4134 1775 4134 
Q 1369 4134 1125 3890 
Q 881 3647 878 3216 
L 300 3275 
Q 359 3922 746 4261 
Q 1134 4600 1788 4600 
Q 2447 4600 2831 4234 
Q 3216 3869 3216 3328 
Q 3216 3053 3103 2787 
Q 2991 2522 2730 2228 
Q 2469 1934 1863 1422 
Q 1356 997 1212 845 
Q 1069 694 975 541 
L 3222 541 
z
" transform="scale(0.015625)"/>
       </defs>
       <use xlink:href="#ArialMT-32"/>
      </g>
     </g>
    </g>
    <g id="ytick_3">
     <g id="text_9">
      <!-- 4 -->
      <g style="fill: #262626" transform="translate(122.439063 458.71275)scale(0.1 -0.1)">
       <defs>
        <path id="ArialMT-34" d="M 2069 0 
L 2069 1097 
L 81 1097 
L 81 1613 
L 2172 4581 
L 2631 4581 
L 2631 1613 
L 3250 1613 
L 3250 1097 
L 2631 1097 
L 2631 0 
L 2069 0 
z
M 2069 1613 
L 2069 3678 
L 634 1613 
L 2069 1613 
z
" transform="scale(0.015625)"/>
       </defs>
       <use xlink:href="#ArialMT-34"/>
      </g>
     </g>
    </g>
    <g id="ytick_4">
     <g id="text_10">
      <!-- 6 -->
      <g style="fill: #262626" transform="translate(122.439063 371.279672)scale(0.1 -0.1)">
       <defs>
        <path id="ArialMT-36" d="M 3184 3459 
L 2625 3416 
Q 2550 3747 2413 3897 
Q 2184 4138 1850 4138 
Q 1581 4138 1378 3988 
Q 1113 3794 959 3422 
Q 806 3050 800 2363 
Q 1003 2672 1297 2822 
Q 1591 2972 1913 2972 
Q 2475 2972 2870 2558 
Q 3266 2144 3266 1488 
Q 3266 1056 3080 686 
Q 2894 316 2569 119 
Q 2244 -78 1831 -78 
Q 1128 -78 684 439 
Q 241 956 241 2144 
Q 241 3472 731 4075 
Q 1159 4600 1884 4600 
Q 2425 4600 2770 4297 
Q 3116 3994 3184 3459 
z
M 888 1484 
Q 888 1194 1011 928 
Q 1134 663 1356 523 
Q 1578 384 1822 384 
Q 2178 384 2434 671 
Q 2691 959 2691 1453 
Q 2691 1928 2437 2201 
Q 2184 2475 1800 2475 
Q 1419 2475 1153 2201 
Q 888 1928 888 1484 
z
" transform="scale(0.015625)"/>
       </defs>
       <use xlink:href="#ArialMT-36"/>
      </g>
     </g>
    </g>
    <g id="ytick_5">
     <g id="text_11">
      <!-- 8 -->
      <g style="fill: #262626" transform="translate(122.439063 283.846594)scale(0.1 -0.1)">
       <defs>
        <path id="ArialMT-38" d="M 1131 2484 
Q 781 2613 612 2850 
Q 444 3088 444 3419 
Q 444 3919 803 4259 
Q 1163 4600 1759 4600 
Q 2359 4600 2725 4251 
Q 3091 3903 3091 3403 
Q 3091 3084 2923 2848 
Q 2756 2613 2416 2484 
Q 2838 2347 3058 2040 
Q 3278 1734 3278 1309 
Q 3278 722 2862 322 
Q 2447 -78 1769 -78 
Q 1091 -78 675 323 
Q 259 725 259 1325 
Q 259 1772 486 2073 
Q 713 2375 1131 2484 
z
M 1019 3438 
Q 1019 3113 1228 2906 
Q 1438 2700 1772 2700 
Q 2097 2700 2305 2904 
Q 2513 3109 2513 3406 
Q 2513 3716 2298 3927 
Q 2084 4138 1766 4138 
Q 1444 4138 1231 3931 
Q 1019 3725 1019 3438 
z
M 838 1322 
Q 838 1081 952 856 
Q 1066 631 1291 507 
Q 1516 384 1775 384 
Q 2178 384 2440 643 
Q 2703 903 2703 1303 
Q 2703 1709 2433 1975 
Q 2163 2241 1756 2241 
Q 1359 2241 1098 1978 
Q 838 1716 838 1322 
z
" transform="scale(0.015625)"/>
       </defs>
       <use xlink:href="#ArialMT-38"/>
      </g>
     </g>
    </g>
    <g id="ytick_6">
     <g id="text_12">
      <!-- 10 -->
      <g style="fill: #262626" transform="translate(116.878125 196.413516)scale(0.1 -0.1)">
       <use xlink:href="#ArialMT-31"/>
       <use xlink:href="#ArialMT-30" x="55.615234"/>
      </g>
     </g>
    </g>
    <g id="ytick_7">
     <g id="text_13">
      <!-- 12 -->
      <g style="fill: #262626" transform="translate(116.878125 108.980438)scale(0.1 -0.1)">
       <use xlink:href="#ArialMT-31"/>
       <use xlink:href="#ArialMT-32" x="55.615234"/>
      </g>
     </g>
    </g>
    <g id="text_14">
     <!-- Density -->
     <g style="fill: #262626" transform="translate(110.3525 378.20625)rotate(-90)scale(0.12 -0.12)">
      <defs>
       <path id="ArialMT-74" d="M 1650 503 
L 1731 6 
Q 1494 -44 1306 -44 
Q 1000 -44 831 53 
Q 663 150 594 308 
Q 525 466 525 972 
L 525 2881 
L 113 2881 
L 113 3319 
L 525 3319 
L 525 4141 
L 1084 4478 
L 1084 3319 
L 1650 3319 
L 1650 2881 
L 1084 2881 
L 1084 941 
Q 1084 700 1114 631 
Q 1144 563 1211 522 
Q 1278 481 1403 481 
Q 1497 481 1650 503 
z
" transform="scale(0.015625)"/>
       <path id="ArialMT-79" d="M 397 -1278 
L 334 -750 
Q 519 -800 656 -800 
Q 844 -800 956 -737 
Q 1069 -675 1141 -563 
Q 1194 -478 1313 -144 
Q 1328 -97 1363 -6 
L 103 3319 
L 709 3319 
L 1400 1397 
Q 1534 1031 1641 628 
Q 1738 1016 1872 1384 
L 2581 3319 
L 3144 3319 
L 1881 -56 
Q 1678 -603 1566 -809 
Q 1416 -1088 1222 -1217 
Q 1028 -1347 759 -1347 
Q 597 -1347 397 -1278 
z
" transform="scale(0.015625)"/>
      </defs>
      <use xlink:href="#ArialMT-44"/>
      <use xlink:href="#ArialMT-65" x="72.216797"/>
      <use xlink:href="#ArialMT-6e" x="127.832031"/>
      <use xlink:href="#ArialMT-73" x="183.447266"/>
      <use xlink:href="#ArialMT-69" x="233.447266"/>
      <use xlink:href="#ArialMT-74" x="255.664062"/>
      <use xlink:href="#ArialMT-79" x="283.447266"/>
     </g>
    </g>
   </g>
   <g id="line2d_1">
    <path d="M 178.026219 629.98175 
L 181.797838 629.878964 
L 185.569457 629.518832 
L 189.341076 628.851545 
L 193.112694 628.345899 
L 196.884313 628.539998 
L 200.655932 629.173564 
L 204.427551 629.658255 
L 208.19917 629.845745 
L 227.057264 629.828537 
L 234.600501 629.755109 
L 253.458595 629.90076 
L 257.230214 629.713794 
L 264.773452 628.931437 
L 268.54507 628.861191 
L 276.088308 629.160839 
L 283.631546 628.878461 
L 291.174783 629.162928 
L 294.946402 628.912428 
L 298.718021 628.53265 
L 302.48964 628.559104 
L 310.032877 629.543476 
L 313.804496 629.721144 
L 317.576115 629.515379 
L 321.347734 628.750324 
L 328.890971 626.250354 
L 332.66259 625.620211 
L 336.434209 625.623459 
L 340.205828 626.586697 
L 343.977447 628.124268 
L 347.749065 629.193596 
L 351.520684 629.557972 
L 355.292303 629.619207 
L 359.063922 629.5488 
L 362.835541 628.986009 
L 366.607159 627.280068 
L 370.378778 624.826998 
L 374.150397 623.84314 
L 377.922016 625.444944 
L 381.693635 627.732575 
L 385.465253 628.929172 
L 389.236872 629.195418 
L 393.008491 629.186784 
L 396.78011 629.039965 
L 400.551729 628.377813 
L 408.094966 625.366833 
L 411.866585 625.262441 
L 419.409823 627.50789 
L 423.181442 627.98084 
L 426.95306 628.027581 
L 430.724679 627.717251 
L 434.496298 626.7633 
L 442.039536 623.299044 
L 445.811154 623.091213 
L 453.354392 625.941058 
L 457.126011 625.769716 
L 460.89763 624.526653 
L 464.669248 624.127085 
L 468.440867 624.936043 
L 472.212486 624.908282 
L 475.984105 622.551027 
L 479.755724 619.643177 
L 483.527342 619.35465 
L 487.298961 621.308929 
L 491.07058 622.625793 
L 502.385436 622.827745 
L 506.157055 622.706299 
L 509.928674 621.817691 
L 513.700293 620.176414 
L 517.471912 619.084325 
L 521.243531 619.655375 
L 525.015149 620.555398 
L 528.786768 620.136801 
L 532.558387 618.680584 
L 536.330006 615.50879 
L 540.101625 596.228473 
L 543.873243 512.843151 
L 547.644862 320.932823 
L 551.416481 119.984622 
L 555.1881 120.054735 
L 558.959719 321.025408 
L 562.731337 512.494059 
L 566.502956 594.632375 
L 570.274575 611.643833 
L 574.046194 611.582064 
L 577.817813 609.709121 
L 581.589431 606.89425 
L 585.36105 601.892894 
L 589.132669 597.480283 
L 592.904288 595.233408 
L 596.675907 590.296486 
L 600.447525 583.598601 
L 604.219144 584.188934 
L 607.990763 592.232876 
L 611.762382 599.034432 
L 615.534001 599.467381 
L 619.305619 591.941648 
L 623.077238 581.356866 
L 626.848857 580.314567 
L 630.620476 590.030261 
L 634.392095 595.142995 
L 638.163714 586.033551 
L 641.935332 573.95393 
L 645.706951 576.754152 
L 649.47857 591.709899 
L 653.250189 602.407785 
L 657.021808 603.272755 
L 660.793426 599.921928 
L 664.565045 598.940693 
L 672.108283 605.194458 
L 675.879902 605.138798 
L 679.65152 604.404085 
L 683.423139 605.603519 
L 687.194758 607.09732 
L 690.966377 607.108536 
L 694.737996 606.43565 
L 698.509614 607.743362 
L 702.281233 611.132669 
L 706.052852 613.511225 
L 709.824471 614.353147 
L 717.367708 616.496515 
L 721.139327 615.768794 
L 724.910946 610.288302 
L 728.682565 599.518946 
L 732.454184 592.073261 
L 736.225802 597.389307 
L 739.997421 609.693839 
L 743.76904 617.78823 
L 747.540659 619.989794 
L 755.083897 619.897943 
L 758.855515 619.514111 
L 762.627134 617.376966 
L 766.398753 613.983159 
L 770.170372 612.758127 
L 773.941991 614.967717 
L 777.713609 618.145261 
L 781.485228 620.611436 
L 785.256847 622.336489 
L 789.028466 623.464758 
L 792.800085 623.252419 
L 796.571703 619.546807 
L 800.343322 611.723335 
L 804.114941 605.661527 
L 807.88656 608.327985 
L 811.658179 616.293286 
L 815.429797 621.460263 
L 819.201416 622.331074 
L 822.973035 622.222195 
L 826.744654 622.931913 
L 830.516273 622.280318 
L 834.287891 617.068251 
L 838.05951 609.31993 
L 841.831129 607.369746 
L 845.602748 614.20797 
L 849.374367 622.291928 
L 853.145985 625.673304 
L 856.917604 625.674499 
L 860.689223 625.31507 
L 868.232461 625.460555 
L 875.775698 624.797317 
L 879.547317 625.160973 
L 883.318936 625.288932 
L 887.090555 624.362996 
L 890.862174 624.117122 
L 894.633792 625.783297 
L 898.405411 627.29917 
L 902.17703 625.115974 
L 905.948649 616.237296 
L 909.720268 603.655299 
L 913.491886 599.293549 
L 917.263505 608.481194 
L 921.035124 620.957396 
L 924.806743 627.723225 
L 928.578362 629.656607 
L 928.578362 629.656607 
" clip-path="url(#pb062293ae8)" style="fill: none; stroke: #e24a33; stroke-width: 1.5; stroke-linecap: round"/>
   </g>
   <g id="line2d_2">
    <path d="M 173.045455 629.999942 
L 195.987437 629.908401 
L 207.458429 629.620725 
L 218.92942 629.135558 
L 264.813385 626.863332 
L 272.460713 626.675279 
L 276.284376 626.486132 
L 287.755368 625.502516 
L 291.579032 625.433306 
L 299.226359 625.476052 
L 310.69735 625.124393 
L 322.168342 625.351878 
L 325.992005 625.122072 
L 329.815669 624.592682 
L 337.462997 623.046703 
L 341.286661 622.477235 
L 352.757652 621.507848 
L 356.581316 621.434042 
L 364.228643 621.925616 
L 368.052307 621.925998 
L 371.875971 621.72784 
L 375.699635 621.679026 
L 379.523298 621.972412 
L 383.346962 622.431701 
L 387.170626 622.762517 
L 390.99429 622.869533 
L 394.817953 622.821517 
L 398.641617 622.618333 
L 406.288945 621.756216 
L 410.112608 621.598642 
L 413.936272 621.791262 
L 417.759936 621.862097 
L 421.5836 621.250245 
L 425.407264 619.995939 
L 429.230927 618.900331 
L 433.054591 618.805642 
L 436.878255 619.68659 
L 440.701919 620.704588 
L 444.525582 621.135214 
L 452.17291 620.808918 
L 455.996574 621.164858 
L 459.820238 622.106132 
L 463.643901 623.179366 
L 467.467565 623.940582 
L 471.291229 624.351253 
L 482.76222 625.065449 
L 494.233212 625.454377 
L 498.056875 625.479608 
L 501.880539 625.342884 
L 513.35153 624.293249 
L 517.175194 624.388038 
L 524.822522 625.530355 
L 528.646185 625.466878 
L 532.469849 622.281107 
L 536.293513 608.457296 
L 540.117177 568.714441 
L 543.940841 489.138708 
L 547.764504 383.297298 
L 551.588168 305.277152 
L 555.411832 309.770776 
L 559.235496 393.211602 
L 563.059159 497.926095 
L 566.882823 572.951085 
L 570.706487 608.368844 
L 574.530151 619.120637 
L 578.353815 620.526947 
L 582.177478 620.475525 
L 586.001142 621.290364 
L 589.824806 622.605109 
L 593.64847 623.534567 
L 597.472133 623.797312 
L 601.295797 623.646268 
L 605.119461 623.357595 
L 608.943125 622.952477 
L 612.766788 622.181021 
L 616.590452 620.72401 
L 620.414116 618.660943 
L 624.23778 616.762173 
L 628.061444 615.952591 
L 631.885107 616.381271 
L 635.708771 617.320776 
L 639.532435 617.914844 
L 643.356099 617.701171 
L 647.179762 616.566623 
L 651.003426 614.629495 
L 654.82709 612.296622 
L 658.650754 610.104838 
L 662.474418 608.064802 
L 666.298081 605.374851 
L 673.945409 597.657519 
L 677.769073 595.811362 
L 681.592736 596.818034 
L 685.4164 599.304003 
L 689.240064 600.919646 
L 693.063728 600.342504 
L 696.887392 598.106141 
L 700.711055 595.490304 
L 704.534719 593.188562 
L 708.358383 591.650015 
L 712.182047 591.828276 
L 716.00571 594.341258 
L 719.829374 598.247664 
L 723.653038 601.654393 
L 727.476702 603.54895 
L 735.124029 605.51474 
L 738.947693 606.721828 
L 742.771357 607.485892 
L 746.595021 607.29157 
L 750.418684 606.045823 
L 754.242348 603.881368 
L 758.066012 601.345385 
L 761.889676 599.510022 
L 765.713339 598.912554 
L 769.537003 598.481472 
L 773.360667 596.729094 
L 777.184331 594.115525 
L 781.007995 592.954064 
L 784.831658 594.66645 
L 792.478986 601.710078 
L 796.30265 603.979537 
L 800.126313 605.004699 
L 803.949977 604.986507 
L 807.773641 604.108648 
L 811.597305 602.799461 
L 815.420968 601.798724 
L 819.244632 601.673934 
L 823.068296 602.312602 
L 826.89196 603.109519 
L 830.715624 603.609075 
L 834.539287 603.78799 
L 842.186615 603.794471 
L 846.010279 603.672474 
L 857.48127 603.025818 
L 865.128598 603.026263 
L 868.952261 602.837506 
L 876.599589 602.078875 
L 880.423253 602.097832 
L 884.246916 602.75908 
L 888.07058 604.3414 
L 891.894244 607.063215 
L 895.717908 610.842641 
L 903.365235 619.652724 
L 907.188899 623.509339 
L 911.012563 626.434716 
L 914.836227 628.32577 
L 918.65989 629.343709 
L 922.483554 629.789791 
L 926.307218 629.945951 
L 933.954545 629.998246 
L 933.954545 629.998246 
" clip-path="url(#pb062293ae8)" style="fill: none; stroke: #348abd; stroke-width: 1.5; stroke-linecap: round"/>
   </g>
   <g id="line2d_3">
    <path d="M 177.493701 629.999996 
L 294.579794 629.89863 
L 309.687677 629.647442 
L 321.018589 629.269403 
L 328.572531 628.782728 
L 336.126472 627.913218 
L 343.680414 626.910371 
L 358.788297 623.907472 
L 362.565268 622.498614 
L 366.342238 619.662048 
L 370.119209 616.294689 
L 373.89618 614.980493 
L 377.673151 614.27902 
L 381.450121 611.129373 
L 385.227092 609.421572 
L 389.004063 612.497805 
L 392.781034 612.886745 
L 396.558004 603.752177 
L 400.334975 593.967925 
L 404.111946 597.500369 
L 407.888917 611.607594 
L 411.665887 622.497491 
L 415.442858 622.876638 
L 419.219829 612.153047 
L 422.9968 596.500428 
L 426.77377 590.768462 
L 430.550741 601.589371 
L 434.327712 617.28234 
L 438.104683 626.481099 
L 441.881653 629.398161 
L 445.658624 629.936375 
L 453.212566 629.999832 
L 532.528951 629.964413 
L 536.305922 629.414656 
L 540.082893 624.048855 
L 543.859864 592.60073 
L 547.636834 484.722312 
L 551.413805 281.174739 
L 555.190776 112.285714 
L 558.967746 155.052523 
L 562.744717 360.676509 
L 566.521688 535.599108 
L 570.298659 609.547275 
L 574.075629 627.260953 
L 577.8526 629.773264 
L 581.629571 629.988398 
L 619.399278 630 
L 664.722927 629.970983 
L 668.499898 629.62628 
L 672.276869 627.024837 
L 676.05384 615.359747 
L 679.83081 585.469294 
L 683.607781 546.276936 
L 687.384752 532.695244 
L 691.161723 559.984685 
L 694.938693 597.708681 
L 698.715664 613.512672 
L 702.492635 597.330912 
L 706.269606 554.203334 
L 710.046576 516.334877 
L 713.823547 521.581698 
L 717.600518 552.671561 
L 721.377489 558.115638 
L 725.154459 533.641392 
L 728.93143 523.304441 
L 732.708401 541.899977 
L 736.485372 558.904299 
L 740.262342 563.01397 
L 744.039313 568.688316 
L 747.816284 576.246644 
L 751.593255 580.578578 
L 759.147196 588.088761 
L 762.924167 591.618997 
L 766.701138 595.357309 
L 770.478108 598.791601 
L 774.255079 601.831849 
L 781.80902 607.279746 
L 793.139933 614.986235 
L 796.916903 618.018033 
L 800.693874 620.823206 
L 804.470845 622.754867 
L 808.247816 623.973018 
L 812.024786 625.055997 
L 819.578728 627.439907 
L 823.355699 628.229053 
L 830.90964 629.020151 
L 838.463582 629.640111 
L 846.017523 629.821459 
L 864.902377 629.987852 
L 929.11088 629.999996 
L 929.11088 629.999996 
" clip-path="url(#pb062293ae8)" style="fill: none; stroke: #988ed5; stroke-width: 1.5; stroke-linecap: round"/>
   </g>
   <g id="patch_3">
    <path d="M 135 630 
L 135 86.4 
" style="fill: none; stroke: #262626; stroke-linejoin: miter; stroke-linecap: square"/>
   </g>
   <g id="patch_4">
    <path d="M 972 630 
L 972 86.4 
" style="fill: none; stroke: #262626; stroke-linejoin: miter; stroke-linecap: square"/>
   </g>
   <g id="patch_5">
    <path d="M 135 630 
L 972 630 
" style="fill: none; stroke: #262626; stroke-linejoin: miter; stroke-linecap: square"/>
   </g>
   <g id="patch_6">
    <path d="M 135 86.4 
L 972 86.4 
" style="fill: none; stroke: #262626; stroke-linejoin: miter; stroke-linecap: square"/>
   </g>
   <g id="legend_1">
    <g id="patch_7">
     <path d="M 869.65 137.075 
L 965 137.075 
Q 967 137.075 967 135.075 
L 967 93.4 
Q 967 91.4 965 91.4 
L 869.65 91.4 
Q 867.65 91.4 867.65 93.4 
L 867.65 135.075 
Q 867.65 137.075 869.65 137.075 
z
" style="fill: #ffffff; opacity: 0.8; stroke: #cccccc; stroke-width: 0.5; stroke-linejoin: miter"/>
    </g>
    <g id="line2d_4">
     <path d="M 871.65 99.057813 
L 881.65 99.057813 
L 891.65 99.057813 
" style="fill: none; stroke: #e24a33; stroke-width: 1.5; stroke-linecap: round"/>
    </g>
    <g id="text_15">
     <!-- Textblob -->
     <g style="fill: #262626" transform="translate(899.65 102.557813)scale(0.1 -0.1)">
      <defs>
       <path id="ArialMT-54" d="M 1659 0 
L 1659 4041 
L 150 4041 
L 150 4581 
L 3781 4581 
L 3781 4041 
L 2266 4041 
L 2266 0 
L 1659 0 
z
" transform="scale(0.015625)"/>
       <path id="ArialMT-78" d="M 47 0 
L 1259 1725 
L 138 3319 
L 841 3319 
L 1350 2541 
Q 1494 2319 1581 2169 
Q 1719 2375 1834 2534 
L 2394 3319 
L 3066 3319 
L 1919 1756 
L 3153 0 
L 2463 0 
L 1781 1031 
L 1600 1309 
L 728 0 
L 47 0 
z
" transform="scale(0.015625)"/>
       <path id="ArialMT-62" d="M 941 0 
L 419 0 
L 419 4581 
L 981 4581 
L 981 2947 
Q 1338 3394 1891 3394 
Q 2197 3394 2470 3270 
Q 2744 3147 2920 2923 
Q 3097 2700 3197 2384 
Q 3297 2069 3297 1709 
Q 3297 856 2875 390 
Q 2453 -75 1863 -75 
Q 1275 -75 941 416 
L 941 0 
z
M 934 1684 
Q 934 1088 1097 822 
Q 1363 388 1816 388 
Q 2184 388 2453 708 
Q 2722 1028 2722 1663 
Q 2722 2313 2464 2622 
Q 2206 2931 1841 2931 
Q 1472 2931 1203 2611 
Q 934 2291 934 1684 
z
" transform="scale(0.015625)"/>
       <path id="ArialMT-6c" d="M 409 0 
L 409 4581 
L 972 4581 
L 972 0 
L 409 0 
z
" transform="scale(0.015625)"/>
       <path id="ArialMT-6f" d="M 213 1659 
Q 213 2581 725 3025 
Q 1153 3394 1769 3394 
Q 2453 3394 2887 2945 
Q 3322 2497 3322 1706 
Q 3322 1066 3130 698 
Q 2938 331 2570 128 
Q 2203 -75 1769 -75 
Q 1072 -75 642 372 
Q 213 819 213 1659 
z
M 791 1659 
Q 791 1022 1069 705 
Q 1347 388 1769 388 
Q 2188 388 2466 706 
Q 2744 1025 2744 1678 
Q 2744 2294 2464 2611 
Q 2184 2928 1769 2928 
Q 1347 2928 1069 2612 
Q 791 2297 791 1659 
z
" transform="scale(0.015625)"/>
      </defs>
      <use xlink:href="#ArialMT-54"/>
      <use xlink:href="#ArialMT-65" x="49.958984"/>
      <use xlink:href="#ArialMT-78" x="105.574219"/>
      <use xlink:href="#ArialMT-74" x="155.574219"/>
      <use xlink:href="#ArialMT-62" x="183.357422"/>
      <use xlink:href="#ArialMT-6c" x="238.972656"/>
      <use xlink:href="#ArialMT-6f" x="261.189453"/>
      <use xlink:href="#ArialMT-62" x="316.804688"/>
     </g>
    </g>
    <g id="line2d_5">
     <path d="M 871.65 113.203125 
L 881.65 113.203125 
L 891.65 113.203125 
" style="fill: none; stroke: #348abd; stroke-width: 1.5; stroke-linecap: round"/>
    </g>
    <g id="text_16">
     <!-- Vader -->
     <g style="fill: #262626" transform="translate(899.65 116.703125)scale(0.1 -0.1)">
      <defs>
       <path id="ArialMT-56" d="M 1803 0 
L 28 4581 
L 684 4581 
L 1875 1253 
Q 2019 853 2116 503 
Q 2222 878 2363 1253 
L 3600 4581 
L 4219 4581 
L 2425 0 
L 1803 0 
z
" transform="scale(0.015625)"/>
       <path id="ArialMT-72" d="M 416 0 
L 416 3319 
L 922 3319 
L 922 2816 
Q 1116 3169 1280 3281 
Q 1444 3394 1641 3394 
Q 1925 3394 2219 3213 
L 2025 2691 
Q 1819 2813 1613 2813 
Q 1428 2813 1281 2702 
Q 1134 2591 1072 2394 
Q 978 2094 978 1738 
L 978 0 
L 416 0 
z
" transform="scale(0.015625)"/>
      </defs>
      <use xlink:href="#ArialMT-56"/>
      <use xlink:href="#ArialMT-61" x="59.324219"/>
      <use xlink:href="#ArialMT-64" x="114.939453"/>
      <use xlink:href="#ArialMT-65" x="170.554688"/>
      <use xlink:href="#ArialMT-72" x="226.169922"/>
     </g>
    </g>
    <g id="line2d_6">
     <path d="M 871.65 127.470313 
L 881.65 127.470313 
L 891.65 127.470313 
" style="fill: none; stroke: #988ed5; stroke-width: 1.5; stroke-linecap: round"/>
    </g>
    <g id="text_17">
     <!-- Afinn norm (2) -->
     <g style="fill: #262626" transform="translate(899.65 130.970313)scale(0.1 -0.1)">
      <defs>
       <path id="ArialMT-41" d="M -9 0 
L 1750 4581 
L 2403 4581 
L 4278 0 
L 3588 0 
L 3053 1388 
L 1138 1388 
L 634 0 
L -9 0 
z
M 1313 1881 
L 2866 1881 
L 2388 3150 
Q 2169 3728 2063 4100 
Q 1975 3659 1816 3225 
L 1313 1881 
z
" transform="scale(0.015625)"/>
       <path id="ArialMT-66" d="M 556 0 
L 556 2881 
L 59 2881 
L 59 3319 
L 556 3319 
L 556 3672 
Q 556 4006 616 4169 
Q 697 4388 901 4523 
Q 1106 4659 1475 4659 
Q 1713 4659 2000 4603 
L 1916 4113 
Q 1741 4144 1584 4144 
Q 1328 4144 1222 4034 
Q 1116 3925 1116 3625 
L 1116 3319 
L 1763 3319 
L 1763 2881 
L 1116 2881 
L 1116 0 
L 556 0 
z
" transform="scale(0.015625)"/>
       <path id="ArialMT-20" transform="scale(0.015625)"/>
       <path id="ArialMT-6d" d="M 422 0 
L 422 3319 
L 925 3319 
L 925 2853 
Q 1081 3097 1340 3245 
Q 1600 3394 1931 3394 
Q 2300 3394 2536 3241 
Q 2772 3088 2869 2813 
Q 3263 3394 3894 3394 
Q 4388 3394 4653 3120 
Q 4919 2847 4919 2278 
L 4919 0 
L 4359 0 
L 4359 2091 
Q 4359 2428 4304 2576 
Q 4250 2725 4106 2815 
Q 3963 2906 3769 2906 
Q 3419 2906 3187 2673 
Q 2956 2441 2956 1928 
L 2956 0 
L 2394 0 
L 2394 2156 
Q 2394 2531 2256 2718 
Q 2119 2906 1806 2906 
Q 1569 2906 1367 2781 
Q 1166 2656 1075 2415 
Q 984 2175 984 1722 
L 984 0 
L 422 0 
z
" transform="scale(0.015625)"/>
       <path id="ArialMT-28" d="M 1497 -1347 
Q 1031 -759 709 28 
Q 388 816 388 1659 
Q 388 2403 628 3084 
Q 909 3875 1497 4659 
L 1900 4659 
Q 1522 4009 1400 3731 
Q 1209 3300 1100 2831 
Q 966 2247 966 1656 
Q 966 153 1900 -1347 
L 1497 -1347 
z
" transform="scale(0.015625)"/>
       <path id="ArialMT-29" d="M 791 -1347 
L 388 -1347 
Q 1322 153 1322 1656 
Q 1322 2244 1188 2822 
Q 1081 3291 891 3722 
Q 769 4003 388 4659 
L 791 4659 
Q 1378 3875 1659 3084 
Q 1900 2403 1900 1659 
Q 1900 816 1576 28 
Q 1253 -759 791 -1347 
z
" transform="scale(0.015625)"/>
      </defs>
      <use xlink:href="#ArialMT-41"/>
      <use xlink:href="#ArialMT-66" x="66.699219"/>
      <use xlink:href="#ArialMT-69" x="94.482422"/>
      <use xlink:href="#ArialMT-6e" x="116.699219"/>
      <use xlink:href="#ArialMT-6e" x="172.314453"/>
      <use xlink:href="#ArialMT-20" x="227.929688"/>
      <use xlink:href="#ArialMT-6e" x="255.712891"/>
      <use xlink:href="#ArialMT-6f" x="311.328125"/>
      <use xlink:href="#ArialMT-72" x="366.943359"/>
      <use xlink:href="#ArialMT-6d" x="400.244141"/>
      <use xlink:href="#ArialMT-20" x="483.544922"/>
      <use xlink:href="#ArialMT-28" x="511.328125"/>
      <use xlink:href="#ArialMT-32" x="544.628906"/>
      <use xlink:href="#ArialMT-29" x="600.244141"/>
     </g>
    </g>
   </g>
  </g>
 </g>
 <defs>
  <clipPath id="pb062293ae8">
   <rect x="135" y="86.4" width="837" height="543.6"/>
  </clipPath>
 </defs>
</svg>
