<?xml version="1.0" encoding="utf-8" standalone="no"?>
<!DOCTYPE svg PUBLIC "-//W3C//DTD SVG 1.1//EN"
  "http://www.w3.org/Graphics/SVG/1.1/DTD/svg11.dtd">
<svg xmlns:xlink="http://www.w3.org/1999/xlink" width="1080pt" height="720pt" viewBox="0 0 1080 720" xmlns="http://www.w3.org/2000/svg" version="1.1">
 <metadata>
  <rdf:RDF xmlns:dc="http://purl.org/dc/elements/1.1/" xmlns:cc="http://creativecommons.org/ns#" xmlns:rdf="http://www.w3.org/1999/02/22-rdf-syntax-ns#">
   <cc:Work>
    <dc:type rdf:resource="http://purl.org/dc/dcmitype/StillImage"/>
    <dc:date>2022-05-30T19:56:49.593989</dc:date>
    <dc:format>image/svg+xml</dc:format>
    <dc:creator>
     <cc:Agent>
      <dc:title>Matplotlib v3.5.1, https://matplotlib.org/</dc:title>
     </cc:Agent>
    </dc:creator>
   </cc:Work>
  </rdf:RDF>
 </metadata>
 <defs>
  <style type="text/css">*{stroke-linejoin: round; stroke-linecap: butt}</style>
 </defs>
 <g id="figure_1">
  <g id="patch_1">
   <path d="M 0 720 
L 1080 720 
L 1080 0 
L 0 0 
z
" style="fill: #ffffff"/>
  </g>
  <g id="axes_1">
   <g id="patch_2">
    <path d="M 135 630 
L 972 630 
L 972 86.4 
L 135 86.4 
z
" style="fill: #ffffff"/>
   </g>
   <g id="matplotlib.axis_1">
    <g id="xtick_1">
     <g id="text_1">
      <!-- −20 -->
      <g style="fill: #262626" transform="translate(184.303535 644.157812)scale(0.1 -0.1)">
       <defs>
        <path id="ArialMT-2212" d="M 3381 1997 
L 356 1997 
L 356 2522 
L 3381 2522 
L 3381 1997 
z
" transform="scale(0.015625)"/>
        <path id="ArialMT-32" d="M 3222 541 
L 3222 0 
L 194 0 
Q 188 203 259 391 
Q 375 700 629 1000 
Q 884 1300 1366 1694 
Q 2113 2306 2375 2664 
Q 2638 3022 2638 3341 
Q 2638 3675 2398 3904 
Q 2159 4134 1775 4134 
Q 1369 4134 1125 3890 
Q 881 3647 878 3216 
L 300 3275 
Q 359 3922 746 4261 
Q 1134 4600 1788 4600 
Q 2447 4600 2831 4234 
Q 3216 3869 3216 3328 
Q 3216 3053 3103 2787 
Q 2991 2522 2730 2228 
Q 2469 1934 1863 1422 
Q 1356 997 1212 845 
Q 1069 694 975 541 
L 3222 541 
z
" transform="scale(0.015625)"/>
        <path id="ArialMT-30" d="M 266 2259 
Q 266 3072 433 3567 
Q 600 4063 929 4331 
Q 1259 4600 1759 4600 
Q 2128 4600 2406 4451 
Q 2684 4303 2865 4023 
Q 3047 3744 3150 3342 
Q 3253 2941 3253 2259 
Q 3253 1453 3087 958 
Q 2922 463 2592 192 
Q 2263 -78 1759 -78 
Q 1097 -78 719 397 
Q 266 969 266 2259 
z
M 844 2259 
Q 844 1131 1108 757 
Q 1372 384 1759 384 
Q 2147 384 2411 759 
Q 2675 1134 2675 2259 
Q 2675 3391 2411 3762 
Q 2147 4134 1753 4134 
Q 1366 4134 1134 3806 
Q 844 3388 844 2259 
z
" transform="scale(0.015625)"/>
       </defs>
       <use xlink:href="#ArialMT-2212"/>
       <use xlink:href="#ArialMT-32" x="58.398438"/>
       <use xlink:href="#ArialMT-30" x="114.013672"/>
      </g>
     </g>
    </g>
    <g id="xtick_2">
     <g id="text_2">
      <!-- −15 -->
      <g style="fill: #262626" transform="translate(279.899109 644.157812)scale(0.1 -0.1)">
       <defs>
        <path id="ArialMT-31" d="M 2384 0 
L 1822 0 
L 1822 3584 
Q 1619 3391 1289 3197 
Q 959 3003 697 2906 
L 697 3450 
Q 1169 3672 1522 3987 
Q 1875 4303 2022 4600 
L 2384 4600 
L 2384 0 
z
" transform="scale(0.015625)"/>
        <path id="ArialMT-35" d="M 266 1200 
L 856 1250 
Q 922 819 1161 601 
Q 1400 384 1738 384 
Q 2144 384 2425 690 
Q 2706 997 2706 1503 
Q 2706 1984 2436 2262 
Q 2166 2541 1728 2541 
Q 1456 2541 1237 2417 
Q 1019 2294 894 2097 
L 366 2166 
L 809 4519 
L 3088 4519 
L 3088 3981 
L 1259 3981 
L 1013 2750 
Q 1425 3038 1878 3038 
Q 2478 3038 2890 2622 
Q 3303 2206 3303 1553 
Q 3303 931 2941 478 
Q 2500 -78 1738 -78 
Q 1113 -78 717 272 
Q 322 622 266 1200 
z
" transform="scale(0.015625)"/>
       </defs>
       <use xlink:href="#ArialMT-2212"/>
       <use xlink:href="#ArialMT-31" x="58.398438"/>
       <use xlink:href="#ArialMT-35" x="114.013672"/>
      </g>
     </g>
    </g>
    <g id="xtick_3">
     <g id="text_3">
      <!-- −10 -->
      <g style="fill: #262626" transform="translate(375.494682 644.157812)scale(0.1 -0.1)">
       <use xlink:href="#ArialMT-2212"/>
       <use xlink:href="#ArialMT-31" x="58.398438"/>
       <use xlink:href="#ArialMT-30" x="114.013672"/>
      </g>
     </g>
    </g>
    <g id="xtick_4">
     <g id="text_4">
      <!-- −5 -->
      <g style="fill: #262626" transform="translate(473.870723 644.157812)scale(0.1 -0.1)">
       <use xlink:href="#ArialMT-2212"/>
       <use xlink:href="#ArialMT-35" x="58.398438"/>
      </g>
     </g>
    </g>
    <g id="xtick_5">
     <g id="text_5">
      <!-- 0 -->
      <g style="fill: #262626" transform="translate(572.386609 644.157812)scale(0.1 -0.1)">
       <use xlink:href="#ArialMT-30"/>
      </g>
     </g>
    </g>
    <g id="xtick_6">
     <g id="text_6">
      <!-- 5 -->
      <g style="fill: #262626" transform="translate(667.982182 644.157812)scale(0.1 -0.1)">
       <use xlink:href="#ArialMT-35"/>
      </g>
     </g>
    </g>
    <g id="xtick_7">
     <g id="text_7">
      <!-- 10 -->
      <g style="fill: #262626" transform="translate(760.797287 644.157812)scale(0.1 -0.1)">
       <use xlink:href="#ArialMT-31"/>
       <use xlink:href="#ArialMT-30" x="55.615234"/>
      </g>
     </g>
    </g>
    <g id="xtick_8">
     <g id="text_8">
      <!-- 15 -->
      <g style="fill: #262626" transform="translate(856.39286 644.157812)scale(0.1 -0.1)">
       <use xlink:href="#ArialMT-31"/>
       <use xlink:href="#ArialMT-35" x="55.615234"/>
      </g>
     </g>
    </g>
    <g id="xtick_9">
     <g id="text_9">
      <!-- 20 -->
      <g style="fill: #262626" transform="translate(951.988433 644.157812)scale(0.1 -0.1)">
       <use xlink:href="#ArialMT-32"/>
       <use xlink:href="#ArialMT-30" x="55.615234"/>
      </g>
     </g>
    </g>
    <g id="text_10">
     <!-- Polaridade -->
     <g style="fill: #262626" transform="translate(524.814375 658.734688)scale(0.12 -0.12)">
      <defs>
       <path id="ArialMT-50" d="M 494 0 
L 494 4581 
L 2222 4581 
Q 2678 4581 2919 4538 
Q 3256 4481 3484 4323 
Q 3713 4166 3852 3881 
Q 3991 3597 3991 3256 
Q 3991 2672 3619 2267 
Q 3247 1863 2275 1863 
L 1100 1863 
L 1100 0 
L 494 0 
z
M 1100 2403 
L 2284 2403 
Q 2872 2403 3119 2622 
Q 3366 2841 3366 3238 
Q 3366 3525 3220 3729 
Q 3075 3934 2838 4000 
Q 2684 4041 2272 4041 
L 1100 4041 
L 1100 2403 
z
" transform="scale(0.015625)"/>
       <path id="ArialMT-6f" d="M 213 1659 
Q 213 2581 725 3025 
Q 1153 3394 1769 3394 
Q 2453 3394 2887 2945 
Q 3322 2497 3322 1706 
Q 3322 1066 3130 698 
Q 2938 331 2570 128 
Q 2203 -75 1769 -75 
Q 1072 -75 642 372 
Q 213 819 213 1659 
z
M 791 1659 
Q 791 1022 1069 705 
Q 1347 388 1769 388 
Q 2188 388 2466 706 
Q 2744 1025 2744 1678 
Q 2744 2294 2464 2611 
Q 2184 2928 1769 2928 
Q 1347 2928 1069 2612 
Q 791 2297 791 1659 
z
" transform="scale(0.015625)"/>
       <path id="ArialMT-6c" d="M 409 0 
L 409 4581 
L 972 4581 
L 972 0 
L 409 0 
z
" transform="scale(0.015625)"/>
       <path id="ArialMT-61" d="M 2588 409 
Q 2275 144 1986 34 
Q 1697 -75 1366 -75 
Q 819 -75 525 192 
Q 231 459 231 875 
Q 231 1119 342 1320 
Q 453 1522 633 1644 
Q 813 1766 1038 1828 
Q 1203 1872 1538 1913 
Q 2219 1994 2541 2106 
Q 2544 2222 2544 2253 
Q 2544 2597 2384 2738 
Q 2169 2928 1744 2928 
Q 1347 2928 1158 2789 
Q 969 2650 878 2297 
L 328 2372 
Q 403 2725 575 2942 
Q 747 3159 1072 3276 
Q 1397 3394 1825 3394 
Q 2250 3394 2515 3294 
Q 2781 3194 2906 3042 
Q 3031 2891 3081 2659 
Q 3109 2516 3109 2141 
L 3109 1391 
Q 3109 606 3145 398 
Q 3181 191 3288 0 
L 2700 0 
Q 2613 175 2588 409 
z
M 2541 1666 
Q 2234 1541 1622 1453 
Q 1275 1403 1131 1340 
Q 988 1278 909 1158 
Q 831 1038 831 891 
Q 831 666 1001 516 
Q 1172 366 1500 366 
Q 1825 366 2078 508 
Q 2331 650 2450 897 
Q 2541 1088 2541 1459 
L 2541 1666 
z
" transform="scale(0.015625)"/>
       <path id="ArialMT-72" d="M 416 0 
L 416 3319 
L 922 3319 
L 922 2816 
Q 1116 3169 1280 3281 
Q 1444 3394 1641 3394 
Q 1925 3394 2219 3213 
L 2025 2691 
Q 1819 2813 1613 2813 
Q 1428 2813 1281 2702 
Q 1134 2591 1072 2394 
Q 978 2094 978 1738 
L 978 0 
L 416 0 
z
" transform="scale(0.015625)"/>
       <path id="ArialMT-69" d="M 425 3934 
L 425 4581 
L 988 4581 
L 988 3934 
L 425 3934 
z
M 425 0 
L 425 3319 
L 988 3319 
L 988 0 
L 425 0 
z
" transform="scale(0.015625)"/>
       <path id="ArialMT-64" d="M 2575 0 
L 2575 419 
Q 2259 -75 1647 -75 
Q 1250 -75 917 144 
Q 584 363 401 755 
Q 219 1147 219 1656 
Q 219 2153 384 2558 
Q 550 2963 881 3178 
Q 1213 3394 1622 3394 
Q 1922 3394 2156 3267 
Q 2391 3141 2538 2938 
L 2538 4581 
L 3097 4581 
L 3097 0 
L 2575 0 
z
M 797 1656 
Q 797 1019 1065 703 
Q 1334 388 1700 388 
Q 2069 388 2326 689 
Q 2584 991 2584 1609 
Q 2584 2291 2321 2609 
Q 2059 2928 1675 2928 
Q 1300 2928 1048 2622 
Q 797 2316 797 1656 
z
" transform="scale(0.015625)"/>
       <path id="ArialMT-65" d="M 2694 1069 
L 3275 997 
Q 3138 488 2766 206 
Q 2394 -75 1816 -75 
Q 1088 -75 661 373 
Q 234 822 234 1631 
Q 234 2469 665 2931 
Q 1097 3394 1784 3394 
Q 2450 3394 2872 2941 
Q 3294 2488 3294 1666 
Q 3294 1616 3291 1516 
L 816 1516 
Q 847 969 1125 678 
Q 1403 388 1819 388 
Q 2128 388 2347 550 
Q 2566 713 2694 1069 
z
M 847 1978 
L 2700 1978 
Q 2663 2397 2488 2606 
Q 2219 2931 1791 2931 
Q 1403 2931 1139 2672 
Q 875 2413 847 1978 
z
" transform="scale(0.015625)"/>
      </defs>
      <use xlink:href="#ArialMT-50"/>
      <use xlink:href="#ArialMT-6f" x="66.699219"/>
      <use xlink:href="#ArialMT-6c" x="122.314453"/>
      <use xlink:href="#ArialMT-61" x="144.53125"/>
      <use xlink:href="#ArialMT-72" x="200.146484"/>
      <use xlink:href="#ArialMT-69" x="233.447266"/>
      <use xlink:href="#ArialMT-64" x="255.664062"/>
      <use xlink:href="#ArialMT-61" x="311.279297"/>
      <use xlink:href="#ArialMT-64" x="366.894531"/>
      <use xlink:href="#ArialMT-65" x="422.509766"/>
     </g>
    </g>
   </g>
   <g id="matplotlib.axis_2">
    <g id="ytick_1">
     <g id="text_11">
      <!-- 0 -->
      <g style="fill: #262626" transform="translate(122.439063 633.578906)scale(0.1 -0.1)">
       <use xlink:href="#ArialMT-30"/>
      </g>
     </g>
    </g>
    <g id="ytick_2">
     <g id="text_12">
      <!-- 2 -->
      <g style="fill: #262626" transform="translate(122.439063 544.825987)scale(0.1 -0.1)">
       <use xlink:href="#ArialMT-32"/>
      </g>
     </g>
    </g>
    <g id="ytick_3">
     <g id="text_13">
      <!-- 4 -->
      <g style="fill: #262626" transform="translate(122.439063 456.073068)scale(0.1 -0.1)">
       <defs>
        <path id="ArialMT-34" d="M 2069 0 
L 2069 1097 
L 81 1097 
L 81 1613 
L 2172 4581 
L 2631 4581 
L 2631 1613 
L 3250 1613 
L 3250 1097 
L 2631 1097 
L 2631 0 
L 2069 0 
z
M 2069 1613 
L 2069 3678 
L 634 1613 
L 2069 1613 
z
" transform="scale(0.015625)"/>
       </defs>
       <use xlink:href="#ArialMT-34"/>
      </g>
     </g>
    </g>
    <g id="ytick_4">
     <g id="text_14">
      <!-- 6 -->
      <g style="fill: #262626" transform="translate(122.439063 367.32015)scale(0.1 -0.1)">
       <defs>
        <path id="ArialMT-36" d="M 3184 3459 
L 2625 3416 
Q 2550 3747 2413 3897 
Q 2184 4138 1850 4138 
Q 1581 4138 1378 3988 
Q 1113 3794 959 3422 
Q 806 3050 800 2363 
Q 1003 2672 1297 2822 
Q 1591 2972 1913 2972 
Q 2475 2972 2870 2558 
Q 3266 2144 3266 1488 
Q 3266 1056 3080 686 
Q 2894 316 2569 119 
Q 2244 -78 1831 -78 
Q 1128 -78 684 439 
Q 241 956 241 2144 
Q 241 3472 731 4075 
Q 1159 4600 1884 4600 
Q 2425 4600 2770 4297 
Q 3116 3994 3184 3459 
z
M 888 1484 
Q 888 1194 1011 928 
Q 1134 663 1356 523 
Q 1578 384 1822 384 
Q 2178 384 2434 671 
Q 2691 959 2691 1453 
Q 2691 1928 2437 2201 
Q 2184 2475 1800 2475 
Q 1419 2475 1153 2201 
Q 888 1928 888 1484 
z
" transform="scale(0.015625)"/>
       </defs>
       <use xlink:href="#ArialMT-36"/>
      </g>
     </g>
    </g>
    <g id="ytick_5">
     <g id="text_15">
      <!-- 8 -->
      <g style="fill: #262626" transform="translate(122.439063 278.567231)scale(0.1 -0.1)">
       <defs>
        <path id="ArialMT-38" d="M 1131 2484 
Q 781 2613 612 2850 
Q 444 3088 444 3419 
Q 444 3919 803 4259 
Q 1163 4600 1759 4600 
Q 2359 4600 2725 4251 
Q 3091 3903 3091 3403 
Q 3091 3084 2923 2848 
Q 2756 2613 2416 2484 
Q 2838 2347 3058 2040 
Q 3278 1734 3278 1309 
Q 3278 722 2862 322 
Q 2447 -78 1769 -78 
Q 1091 -78 675 323 
Q 259 725 259 1325 
Q 259 1772 486 2073 
Q 713 2375 1131 2484 
z
M 1019 3438 
Q 1019 3113 1228 2906 
Q 1438 2700 1772 2700 
Q 2097 2700 2305 2904 
Q 2513 3109 2513 3406 
Q 2513 3716 2298 3927 
Q 2084 4138 1766 4138 
Q 1444 4138 1231 3931 
Q 1019 3725 1019 3438 
z
M 838 1322 
Q 838 1081 952 856 
Q 1066 631 1291 507 
Q 1516 384 1775 384 
Q 2178 384 2440 643 
Q 2703 903 2703 1303 
Q 2703 1709 2433 1975 
Q 2163 2241 1756 2241 
Q 1359 2241 1098 1978 
Q 838 1716 838 1322 
z
" transform="scale(0.015625)"/>
       </defs>
       <use xlink:href="#ArialMT-38"/>
      </g>
     </g>
    </g>
    <g id="ytick_6">
     <g id="text_16">
      <!-- 10 -->
      <g style="fill: #262626" transform="translate(116.878125 189.814312)scale(0.1 -0.1)">
       <use xlink:href="#ArialMT-31"/>
       <use xlink:href="#ArialMT-30" x="55.615234"/>
      </g>
     </g>
    </g>
    <g id="ytick_7">
     <g id="text_17">
      <!-- 12 -->
      <g style="fill: #262626" transform="translate(116.878125 101.061393)scale(0.1 -0.1)">
       <use xlink:href="#ArialMT-31"/>
       <use xlink:href="#ArialMT-32" x="55.615234"/>
      </g>
     </g>
    </g>
    <g id="text_18">
     <!-- Densidade -->
     <g style="fill: #262626" transform="translate(110.493125 386.885625)rotate(-90)scale(0.12 -0.12)">
      <defs>
       <path id="ArialMT-44" d="M 494 0 
L 494 4581 
L 2072 4581 
Q 2606 4581 2888 4516 
Q 3281 4425 3559 4188 
Q 3922 3881 4101 3404 
Q 4281 2928 4281 2316 
Q 4281 1794 4159 1391 
Q 4038 988 3847 723 
Q 3656 459 3429 307 
Q 3203 156 2883 78 
Q 2563 0 2147 0 
L 494 0 
z
M 1100 541 
L 2078 541 
Q 2531 541 2789 625 
Q 3047 709 3200 863 
Q 3416 1078 3536 1442 
Q 3656 1806 3656 2325 
Q 3656 3044 3420 3430 
Q 3184 3816 2847 3947 
Q 2603 4041 2063 4041 
L 1100 4041 
L 1100 541 
z
" transform="scale(0.015625)"/>
       <path id="ArialMT-6e" d="M 422 0 
L 422 3319 
L 928 3319 
L 928 2847 
Q 1294 3394 1984 3394 
Q 2284 3394 2536 3286 
Q 2788 3178 2913 3003 
Q 3038 2828 3088 2588 
Q 3119 2431 3119 2041 
L 3119 0 
L 2556 0 
L 2556 2019 
Q 2556 2363 2490 2533 
Q 2425 2703 2258 2804 
Q 2091 2906 1866 2906 
Q 1506 2906 1245 2678 
Q 984 2450 984 1813 
L 984 0 
L 422 0 
z
" transform="scale(0.015625)"/>
       <path id="ArialMT-73" d="M 197 991 
L 753 1078 
Q 800 744 1014 566 
Q 1228 388 1613 388 
Q 2000 388 2187 545 
Q 2375 703 2375 916 
Q 2375 1106 2209 1216 
Q 2094 1291 1634 1406 
Q 1016 1563 777 1677 
Q 538 1791 414 1992 
Q 291 2194 291 2438 
Q 291 2659 392 2848 
Q 494 3038 669 3163 
Q 800 3259 1026 3326 
Q 1253 3394 1513 3394 
Q 1903 3394 2198 3281 
Q 2494 3169 2634 2976 
Q 2775 2784 2828 2463 
L 2278 2388 
Q 2241 2644 2061 2787 
Q 1881 2931 1553 2931 
Q 1166 2931 1000 2803 
Q 834 2675 834 2503 
Q 834 2394 903 2306 
Q 972 2216 1119 2156 
Q 1203 2125 1616 2013 
Q 2213 1853 2448 1751 
Q 2684 1650 2818 1456 
Q 2953 1263 2953 975 
Q 2953 694 2789 445 
Q 2625 197 2315 61 
Q 2006 -75 1616 -75 
Q 969 -75 630 194 
Q 291 463 197 991 
z
" transform="scale(0.015625)"/>
      </defs>
      <use xlink:href="#ArialMT-44"/>
      <use xlink:href="#ArialMT-65" x="72.216797"/>
      <use xlink:href="#ArialMT-6e" x="127.832031"/>
      <use xlink:href="#ArialMT-73" x="183.447266"/>
      <use xlink:href="#ArialMT-69" x="233.447266"/>
      <use xlink:href="#ArialMT-64" x="255.664062"/>
      <use xlink:href="#ArialMT-61" x="311.279297"/>
      <use xlink:href="#ArialMT-64" x="366.894531"/>
      <use xlink:href="#ArialMT-65" x="422.509766"/>
     </g>
    </g>
   </g>
   <g id="line2d_1">
    <path d="M 555.2074 629.981475 
L 555.408 629.877137 
L 555.6086 629.511568 
L 556.0098 628.320929 
L 556.210399 628.517959 
L 556.611599 629.653097 
L 556.812199 629.843416 
L 557.815197 629.825949 
L 558.216397 629.751412 
L 559.219396 629.899262 
L 559.419996 629.709474 
L 559.821195 628.915307 
L 560.021795 628.844 
L 560.422995 629.148172 
L 560.824194 628.86153 
L 561.225394 629.150293 
L 561.827193 628.537353 
L 562.228393 629.536585 
L 562.428992 629.716935 
L 562.629592 629.508064 
L 562.830192 628.73146 
L 563.231391 626.193752 
L 563.431991 625.554096 
L 563.632591 625.557394 
L 563.833191 626.535172 
L 564.23439 629.181423 
L 564.43499 629.551299 
L 564.63559 629.613459 
L 564.83619 629.541988 
L 565.036789 628.970702 
L 565.638589 623.7502 
L 566.240388 628.913007 
L 566.440988 629.183272 
L 566.641588 629.174508 
L 566.842187 629.025473 
L 567.042787 628.353325 
L 567.443987 625.296893 
L 567.644586 625.190925 
L 568.045786 627.470271 
L 568.246386 627.95036 
L 568.446985 627.997807 
L 568.647585 627.682792 
L 568.848185 626.714441 
L 569.249385 623.19789 
L 569.449984 622.986922 
L 569.851184 625.879786 
L 570.051784 625.705859 
L 570.252383 624.44403 
L 570.452983 624.038431 
L 570.653583 624.8596 
L 570.854183 624.83142 
L 571.255382 619.486836 
L 571.455982 619.193954 
L 571.857182 622.514476 
L 572.458981 622.719477 
L 572.659581 622.596197 
L 572.86018 621.694176 
L 573.26138 618.919548 
L 573.66258 620.412828 
L 573.863179 619.987912 
L 574.063779 618.509712 
L 574.264379 615.290039 
L 574.464979 595.718676 
L 574.665578 511.074616 
L 575.066778 112.285714 
L 575.267378 112.356887 
L 575.668577 510.720255 
L 575.869177 594.098485 
L 576.069777 611.366739 
L 576.270377 611.304038 
L 576.671576 606.545459 
L 577.072776 596.989383 
L 577.273375 594.708591 
L 577.674575 582.898151 
L 577.875175 583.497395 
L 578.276374 598.566994 
L 578.476974 599.006477 
L 579.078773 579.564543 
L 579.479973 594.616814 
L 579.881173 573.10789 
L 580.081772 575.950382 
L 580.482972 601.991268 
L 580.683572 602.869296 
L 580.884171 599.467887 
L 581.084771 598.471839 
L 581.485971 604.820007 
L 581.68657 604.763507 
L 581.88717 604.017704 
L 582.28837 606.751594 
L 582.48897 606.762979 
L 582.689569 606.079935 
L 582.890169 607.407388 
L 583.291369 613.26232 
L 583.893168 616.292674 
L 584.093768 615.553967 
L 584.294368 609.990745 
L 584.695567 591.500741 
L 584.896167 596.897035 
L 585.297366 617.603888 
L 585.497966 619.838685 
L 585.899166 619.745448 
L 586.099765 619.355822 
L 586.300365 617.186416 
L 586.500965 613.741377 
L 586.701565 612.497853 
L 587.704564 623.366105 
L 587.905163 623.150561 
L 588.105763 619.389012 
L 588.506963 605.294127 
L 588.707563 608.000837 
L 589.108762 621.331351 
L 589.309362 622.215309 
L 589.509962 622.104786 
L 589.710561 622.825218 
L 589.911161 622.163786 
L 590.51296 607.028132 
L 591.11476 625.60799 
L 591.31536 625.609204 
L 591.515959 625.244349 
L 591.917159 625.392031 
L 592.318358 624.71878 
L 592.518958 625.087926 
L 592.719558 625.217816 
L 592.920158 624.277903 
L 593.120758 624.028318 
L 593.521957 627.258399 
L 593.722557 625.042248 
L 594.324356 598.830022 
L 594.926155 627.688856 
L 595.126755 629.651423 
L 595.126755 629.651423 
" clip-path="url(#p551263258f)" style="fill: none; stroke: #e24a33; stroke-width: 1.5; stroke-linecap: round"/>
   </g>
   <g id="line2d_2">
    <path d="M 554.94249 629.999941 
L 556.162697 629.907019 
L 556.772801 629.615 
L 557.586273 628.927896 
L 560.636791 626.110056 
L 561.043526 625.434625 
L 561.246894 625.364369 
L 561.65363 625.407761 
L 562.263734 625.050794 
L 562.873837 625.281712 
L 563.077205 625.048437 
L 563.483941 623.734432 
L 563.890677 622.363676 
L 564.50078 621.379655 
L 564.704148 621.304735 
L 565.110884 621.80373 
L 565.314252 621.804117 
L 565.720987 621.553417 
L 566.127723 622.317454 
L 566.331091 622.653264 
L 566.534459 622.761895 
L 566.737827 622.713155 
L 566.941195 622.506904 
L 567.551298 621.47182 
L 567.958034 621.739252 
L 568.161402 621.118163 
L 568.568138 618.732777 
L 568.771505 618.636659 
L 569.381609 621.001396 
L 569.788345 620.670174 
L 569.991713 621.031488 
L 570.601816 623.849113 
L 571.008552 624.536443 
L 571.618656 625.146198 
L 572.228759 625.411371 
L 572.432127 625.272583 
L 573.042231 624.207103 
L 573.245599 624.303323 
L 573.652334 625.462884 
L 573.855702 625.398448 
L 574.05907 622.164587 
L 574.262438 608.1321 
L 574.465806 567.789308 
L 575.075909 300.375317 
L 575.279277 304.936774 
L 576.092749 608.042312 
L 576.296117 618.956408 
L 576.499485 620.383947 
L 576.702852 620.331749 
L 576.90622 621.158888 
L 577.312956 623.436969 
L 577.516324 623.703679 
L 577.719692 623.550355 
L 578.126427 622.846092 
L 578.329795 622.06299 
L 578.736531 618.489775 
L 578.939899 616.562342 
L 579.143267 615.74054 
L 579.346635 616.17569 
L 579.75337 617.732413 
L 579.956738 617.515514 
L 580.160106 616.36384 
L 580.973578 607.733681 
L 581.380313 601.102316 
L 581.787049 595.295269 
L 581.990417 596.317138 
L 582.397153 600.480665 
L 582.600521 599.894811 
L 583.413992 591.071105 
L 583.61736 591.252057 
L 583.820728 593.802973 
L 584.227464 601.226503 
L 584.634199 604.116225 
L 585.244303 607.146032 
L 585.447671 606.948776 
L 585.651039 605.684224 
L 586.261142 599.049762 
L 586.667878 598.005686 
L 587.277982 592.394839 
L 587.48135 594.133074 
L 588.091453 603.586746 
L 588.294821 604.627384 
L 588.498189 604.608917 
L 588.904925 602.388857 
L 589.108292 601.373014 
L 589.31166 601.24634 
L 589.921764 603.210692 
L 590.3285 603.425924 
L 590.735235 603.275049 
L 591.345339 602.618631 
L 591.752075 602.619082 
L 591.955443 602.427476 
L 592.362178 601.657393 
L 592.565546 601.676637 
L 592.768914 602.347866 
L 592.972282 603.954073 
L 593.379018 610.553452 
L 594.192489 626.380896 
L 594.599225 629.333802 
L 594.802593 629.786618 
L 595.209329 629.988832 
L 595.412696 629.99822 
L 595.412696 629.99822 
" clip-path="url(#p551263258f)" style="fill: none; stroke: #348abd; stroke-width: 1.5; stroke-linecap: round"/>
   </g>
   <g id="line2d_3">
    <path d="M 173.045455 629.999999 
L 509.527867 629.961609 
L 513.35153 629.802448 
L 517.175194 629.994866 
L 520.998858 629.51081 
L 524.822522 629.980845 
L 528.646185 629.540917 
L 532.469849 629.631839 
L 536.293513 629.941266 
L 540.117177 626.234269 
L 543.940841 629.967342 
L 547.764504 625.657989 
L 551.588168 628.605365 
L 555.411832 628.605334 
L 559.235496 621.182591 
L 563.059159 629.77808 
L 566.882823 474.371176 
L 570.706487 628.638969 
L 574.530151 621.487406 
L 578.353815 613.823027 
L 582.177478 629.322481 
L 586.001142 597.625196 
L 589.824806 629.767617 
L 593.64847 621.169222 
L 597.472133 627.522498 
L 601.295797 629.352789 
L 605.119461 622.860998 
L 608.943125 629.969851 
L 612.766788 625.572447 
L 616.590452 629.598933 
L 620.414116 629.341671 
L 624.23778 627.903589 
L 628.061444 629.975794 
L 631.885107 627.721447 
L 635.708771 629.9322 
L 639.532435 629.302049 
L 647.179762 629.975183 
L 651.003426 629.291252 
L 654.82709 629.993911 
L 658.650754 629.625752 
L 662.474418 629.903012 
L 666.298081 629.958415 
L 670.121745 629.765761 
L 673.945409 629.999081 
L 677.769073 629.895735 
L 685.4164 629.987156 
L 689.240064 629.888817 
L 693.063728 629.998005 
L 704.534719 629.990216 
L 769.537003 629.999909 
L 933.954545 629.999999 
L 933.954545 629.999999 
" clip-path="url(#p551263258f)" style="fill: none; stroke: #988ed5; stroke-width: 1.5; stroke-linecap: round"/>
   </g>
   <g id="patch_3">
    <path d="M 135 630 
L 135 86.4 
" style="fill: none; stroke: #262626; stroke-linejoin: miter; stroke-linecap: square"/>
   </g>
   <g id="patch_4">
    <path d="M 972 630 
L 972 86.4 
" style="fill: none; stroke: #262626; stroke-linejoin: miter; stroke-linecap: square"/>
   </g>
   <g id="patch_5">
    <path d="M 135 630 
L 972 630 
" style="fill: none; stroke: #262626; stroke-linejoin: miter; stroke-linecap: square"/>
   </g>
   <g id="patch_6">
    <path d="M 135 86.4 
L 972 86.4 
" style="fill: none; stroke: #262626; stroke-linejoin: miter; stroke-linecap: square"/>
   </g>
   <g id="legend_1">
    <g id="patch_7">
     <path d="M 873.540625 136.835938 
L 965 136.835938 
Q 967 136.835938 967 134.835938 
L 967 93.4 
Q 967 91.4 965 91.4 
L 873.540625 91.4 
Q 871.540625 91.4 871.540625 93.4 
L 871.540625 134.835938 
Q 871.540625 136.835938 873.540625 136.835938 
z
" style="fill: #ffffff; opacity: 0.8; stroke: #cccccc; stroke-width: 0.5; stroke-linejoin: miter"/>
    </g>
    <g id="line2d_4">
     <path d="M 875.540625 99.057812 
L 885.540625 99.057812 
L 895.540625 99.057812 
" style="fill: none; stroke: #e24a33; stroke-width: 1.5; stroke-linecap: round"/>
    </g>
    <g id="text_19">
     <!-- Textblob -->
     <g style="fill: #262626" transform="translate(903.540625 102.557812)scale(0.1 -0.1)">
      <defs>
       <path id="ArialMT-54" d="M 1659 0 
L 1659 4041 
L 150 4041 
L 150 4581 
L 3781 4581 
L 3781 4041 
L 2266 4041 
L 2266 0 
L 1659 0 
z
" transform="scale(0.015625)"/>
       <path id="ArialMT-78" d="M 47 0 
L 1259 1725 
L 138 3319 
L 841 3319 
L 1350 2541 
Q 1494 2319 1581 2169 
Q 1719 2375 1834 2534 
L 2394 3319 
L 3066 3319 
L 1919 1756 
L 3153 0 
L 2463 0 
L 1781 1031 
L 1600 1309 
L 728 0 
L 47 0 
z
" transform="scale(0.015625)"/>
       <path id="ArialMT-74" d="M 1650 503 
L 1731 6 
Q 1494 -44 1306 -44 
Q 1000 -44 831 53 
Q 663 150 594 308 
Q 525 466 525 972 
L 525 2881 
L 113 2881 
L 113 3319 
L 525 3319 
L 525 4141 
L 1084 4478 
L 1084 3319 
L 1650 3319 
L 1650 2881 
L 1084 2881 
L 1084 941 
Q 1084 700 1114 631 
Q 1144 563 1211 522 
Q 1278 481 1403 481 
Q 1497 481 1650 503 
z
" transform="scale(0.015625)"/>
       <path id="ArialMT-62" d="M 941 0 
L 419 0 
L 419 4581 
L 981 4581 
L 981 2947 
Q 1338 3394 1891 3394 
Q 2197 3394 2470 3270 
Q 2744 3147 2920 2923 
Q 3097 2700 3197 2384 
Q 3297 2069 3297 1709 
Q 3297 856 2875 390 
Q 2453 -75 1863 -75 
Q 1275 -75 941 416 
L 941 0 
z
M 934 1684 
Q 934 1088 1097 822 
Q 1363 388 1816 388 
Q 2184 388 2453 708 
Q 2722 1028 2722 1663 
Q 2722 2313 2464 2622 
Q 2206 2931 1841 2931 
Q 1472 2931 1203 2611 
Q 934 2291 934 1684 
z
" transform="scale(0.015625)"/>
      </defs>
      <use xlink:href="#ArialMT-54"/>
      <use xlink:href="#ArialMT-65" x="49.958984"/>
      <use xlink:href="#ArialMT-78" x="105.574219"/>
      <use xlink:href="#ArialMT-74" x="155.574219"/>
      <use xlink:href="#ArialMT-62" x="183.357422"/>
      <use xlink:href="#ArialMT-6c" x="238.972656"/>
      <use xlink:href="#ArialMT-6f" x="261.189453"/>
      <use xlink:href="#ArialMT-62" x="316.804688"/>
     </g>
    </g>
    <g id="line2d_5">
     <path d="M 875.540625 113.203125 
L 885.540625 113.203125 
L 895.540625 113.203125 
" style="fill: none; stroke: #348abd; stroke-width: 1.5; stroke-linecap: round"/>
    </g>
    <g id="text_20">
     <!-- Vader -->
     <g style="fill: #262626" transform="translate(903.540625 116.703125)scale(0.1 -0.1)">
      <defs>
       <path id="ArialMT-56" d="M 1803 0 
L 28 4581 
L 684 4581 
L 1875 1253 
Q 2019 853 2116 503 
Q 2222 878 2363 1253 
L 3600 4581 
L 4219 4581 
L 2425 0 
L 1803 0 
z
" transform="scale(0.015625)"/>
      </defs>
      <use xlink:href="#ArialMT-56"/>
      <use xlink:href="#ArialMT-61" x="59.324219"/>
      <use xlink:href="#ArialMT-64" x="114.939453"/>
      <use xlink:href="#ArialMT-65" x="170.554688"/>
      <use xlink:href="#ArialMT-72" x="226.169922"/>
     </g>
    </g>
    <g id="line2d_6">
     <path d="M 875.540625 127.348437 
L 885.540625 127.348437 
L 895.540625 127.348437 
" style="fill: none; stroke: #988ed5; stroke-width: 1.5; stroke-linecap: round"/>
    </g>
    <g id="text_21">
     <!-- Afinn Z-score -->
     <g style="fill: #262626" transform="translate(903.540625 130.848437)scale(0.1 -0.1)">
      <defs>
       <path id="ArialMT-41" d="M -9 0 
L 1750 4581 
L 2403 4581 
L 4278 0 
L 3588 0 
L 3053 1388 
L 1138 1388 
L 634 0 
L -9 0 
z
M 1313 1881 
L 2866 1881 
L 2388 3150 
Q 2169 3728 2063 4100 
Q 1975 3659 1816 3225 
L 1313 1881 
z
" transform="scale(0.015625)"/>
       <path id="ArialMT-66" d="M 556 0 
L 556 2881 
L 59 2881 
L 59 3319 
L 556 3319 
L 556 3672 
Q 556 4006 616 4169 
Q 697 4388 901 4523 
Q 1106 4659 1475 4659 
Q 1713 4659 2000 4603 
L 1916 4113 
Q 1741 4144 1584 4144 
Q 1328 4144 1222 4034 
Q 1116 3925 1116 3625 
L 1116 3319 
L 1763 3319 
L 1763 2881 
L 1116 2881 
L 1116 0 
L 556 0 
z
" transform="scale(0.015625)"/>
       <path id="ArialMT-20" transform="scale(0.015625)"/>
       <path id="ArialMT-5a" d="M 128 0 
L 128 563 
L 2475 3497 
Q 2725 3809 2950 4041 
L 394 4041 
L 394 4581 
L 3675 4581 
L 3675 4041 
L 1103 863 
L 825 541 
L 3750 541 
L 3750 0 
L 128 0 
z
" transform="scale(0.015625)"/>
       <path id="ArialMT-2d" d="M 203 1375 
L 203 1941 
L 1931 1941 
L 1931 1375 
L 203 1375 
z
" transform="scale(0.015625)"/>
       <path id="ArialMT-63" d="M 2588 1216 
L 3141 1144 
Q 3050 572 2676 248 
Q 2303 -75 1759 -75 
Q 1078 -75 664 370 
Q 250 816 250 1647 
Q 250 2184 428 2587 
Q 606 2991 970 3192 
Q 1334 3394 1763 3394 
Q 2303 3394 2647 3120 
Q 2991 2847 3088 2344 
L 2541 2259 
Q 2463 2594 2264 2762 
Q 2066 2931 1784 2931 
Q 1359 2931 1093 2626 
Q 828 2322 828 1663 
Q 828 994 1084 691 
Q 1341 388 1753 388 
Q 2084 388 2306 591 
Q 2528 794 2588 1216 
z
" transform="scale(0.015625)"/>
      </defs>
      <use xlink:href="#ArialMT-41"/>
      <use xlink:href="#ArialMT-66" x="66.699219"/>
      <use xlink:href="#ArialMT-69" x="94.482422"/>
      <use xlink:href="#ArialMT-6e" x="116.699219"/>
      <use xlink:href="#ArialMT-6e" x="172.314453"/>
      <use xlink:href="#ArialMT-20" x="227.929688"/>
      <use xlink:href="#ArialMT-5a" x="255.712891"/>
      <use xlink:href="#ArialMT-2d" x="316.796875"/>
      <use xlink:href="#ArialMT-73" x="350.097656"/>
      <use xlink:href="#ArialMT-63" x="400.097656"/>
      <use xlink:href="#ArialMT-6f" x="450.097656"/>
      <use xlink:href="#ArialMT-72" x="505.712891"/>
      <use xlink:href="#ArialMT-65" x="539.013672"/>
     </g>
    </g>
   </g>
  </g>
 </g>
 <defs>
  <clipPath id="p551263258f">
   <rect x="135" y="86.4" width="837" height="543.6"/>
  </clipPath>
 </defs>
</svg>
